<?xml version="1.0" encoding="utf-8"?>
<!-- Generator: Adobe Illustrator 16.0.0, SVG Export Plug-In . SVG Version: 6.00 Build 0)  -->
<!DOCTYPE svg PUBLIC "-//W3C//DTD SVG 1.1//EN" "http://www.w3.org/Graphics/SVG/1.1/DTD/svg11.dtd">
<svg version="1.1" id="Calque_1" xmlns="http://www.w3.org/2000/svg" xmlns:xlink="http://www.w3.org/1999/xlink" x="0px" y="0px"
	 width="512px" height="512px" viewBox="0 0 595.28 822.05" enable-background="new 0 0 595.28 822.05" xml:space="preserve">
<g>
	<path fill-rule="evenodd" clip-rule="evenodd" d="M488.986,375.109c-0.643,49.488-16.059,91.597-47.441,127.517
		c-26.837,30.718-60.325,50.714-100.022,60.232c-7.985,1.914-16.073,3.188-24.241,4.057c-9.25,0.984-18.525,1.264-27.796,0.829
		c-39.207-1.84-74.726-14.294-106.152-37.84c-32.312-24.209-54.787-55.627-67.461-93.994c-3.997-12.097-6.619-24.501-8.062-37.161
		c-1.296-11.374-1.647-22.776-0.859-34.189c2.618-37.904,15.135-72.219,38.121-102.488c26.8-35.291,61.786-58.595,104.623-70.021
		c8.854-2.361,17.856-4.045,26.991-4.881c5.146-0.471,10.311-0.759,15.471-1.063c0.813-0.048,1.67,0.171,2.464,0.408
		c2.126,0.634,4.193,0.608,6.266-0.227c0.502-0.202,1.104-0.272,1.647-0.238c5.385,0.344,10.775,0.62,16.145,1.114
		c9.979,0.919,19.788,2.84,29.436,5.513c34.221,9.481,63.667,27.027,88.147,52.747c23.992,25.205,39.874,54.85,47.793,88.737
		c1.869,7.997,3.236,16.093,3.88,24.286C488.42,364.607,488.719,370.784,488.986,375.109z M355.742,409.555
		c-19.309-33.448-38.468-66.639-57.674-99.912c-1.663,2.174-57.251,98.727-57.545,99.912
		C278.827,409.555,317.119,409.555,355.742,409.555z M241.6,416.568c1.077,1.95,55.52,70.959,56.563,71.691
		c18.748-23.825,37.514-47.642,56.417-71.691C316.703,416.568,279.187,416.568,241.6,416.568z M291.571,307.032
		c-30.403,4.392-60.479,8.735-90.782,13.111c11.357,28.422,22.635,56.644,34.041,85.188
		C253.814,372.443,272.612,339.876,291.571,307.032z M304.802,307.096c-0.065,0.113-0.132,0.227-0.198,0.341
		c18.779,32.532,37.559,65.064,56.51,97.896c11.416-28.57,22.693-56.795,34.039-85.19
		C364.881,315.771,334.841,311.433,304.802,307.096z M385.893,222.507c-3.86-3.569-26.885-13.38-40.082-17.025
		c-28.08-7.756-56.41-8.653-84.922-2.747c-18.261,3.783-35.477,10.379-51.658,19.669c0.122,0.242,0.145,0.383,0.225,0.432
		c3.15,1.951,6.292,3.917,9.467,5.828c1.441,0.867,3.012,1.529,4.404,2.464c0.985,0.661,1.804,0.77,2.76,0.108
		c0.228-0.158,0.499-0.256,0.751-0.378c19.143-9.271,39.349-14.546,60.557-15.897c8.93-0.569,17.866-0.392,26.786,0.521
		c8.625,0.882,17.122,2.408,25.496,4.631c10.125,2.687,19.905,6.313,29.291,10.968c1.086,0.538,1.917,0.538,2.939-0.08
		c2.644-1.598,5.365-3.069,8.013-4.663C381.938,225.125,383.888,223.799,385.893,222.507z M123.369,413.991
		c0.723-0.563,1.185-0.875,1.593-1.247c3.617-3.292,7.202-6.62,10.851-9.878c0.993-0.887,1.254-1.816,1.073-3.109
		c-0.428-3.06-0.779-6.134-1.045-9.212c-1.121-12.945-0.641-25.836,1.348-38.679c3.044-19.659,9.538-38.105,19.386-55.374
		c6.155-10.791,13.497-20.72,21.938-29.833c0.593-0.642,1.062-1.204,0.823-2.204c-1.225-5.136-2.382-10.288-3.577-15.432
		c-0.096-0.411-0.294-0.799-0.523-1.402c-22.469,21.544-38.482,46.877-47.673,76.427
		C118.391,353.537,117.218,383.436,123.369,413.991z M459.944,450.708c-0.534-0.029-0.807-0.064-1.077-0.056
		c-5.346,0.183-10.639,0.856-15.926,1.62c-1.075,0.155-1.633,0.654-2.138,1.579c-16.179,29.621-39.271,52.198-69.246,67.694
		c-13.658,7.06-28.099,11.925-43.2,14.803c-1.019,0.194-1.579,0.62-1.971,1.531c-2.036,4.749-4.113,9.482-6.162,14.226
		c-0.17,0.394-0.244,0.828-0.443,1.523c30.803-3.981,58.581-14.952,83.423-33.232C428.063,502.104,446.885,478.868,459.944,450.708z
		 M136.14,452.06c8.661,18.476,20.028,34.867,34.184,49.329c14.167,14.473,30.32,26.217,48.477,35.195
		c18.108,8.954,37.184,14.632,57.321,17.074c-0.056-0.371-0.045-0.551-0.11-0.698c-2.264-5.138-4.538-10.271-6.801-15.411
		c-0.305-0.692-0.821-0.949-1.548-1.103c-3.735-0.786-7.501-1.476-11.176-2.488c-44.417-12.238-78.02-38.433-100.939-78.373
		c-0.275-0.479-0.557-0.956-0.705-1.208c-2.289-0.363-4.38-0.521-6.373-1.051c-3.125-0.829-6.295-1.114-9.496-1.26
		C138.099,452.026,137.223,452.06,136.14,452.06z M421.206,248.577c-0.241,0.754-0.409,1.17-0.508,1.603
		c-1.048,4.601-2.119,9.196-3.108,13.81c-0.595,2.773-0.524,2.777,1.341,4.887c23.421,26.479,36.961,57.305,40.519,92.471
		c1.278,12.636,0.979,25.271-0.802,37.856c-0.119,0.84,0.115,1.354,0.716,1.893c1.295,1.162,2.514,2.407,3.783,3.598
		c2.786,2.61,5.583,5.21,8.383,7.806c0.15,0.138,0.377,0.193,0.761,0.384c5.817-29.636,4.692-58.809-4.036-87.6
		C459.295,295.729,443.513,270.317,421.206,248.577z M237.697,237.922c0.746,0.332,1.197,0.551,1.662,0.736
		c7.636,3.027,15.461,5.441,23.471,7.261c7.243,1.645,14.566,2.749,21.964,3.395c1.315,0.114,2.138-0.22,2.906-1.376
		c2.797-4.214,5.723-8.343,8.606-12.5c0.339-0.489,0.713-0.954,1.155-1.54c0.374,0.486,0.658,0.824,0.908,1.184
		c3.009,4.343,6.041,8.671,8.998,13.049c0.65,0.964,1.351,1.342,2.494,1.195c3.676-0.472,7.371-0.8,11.038-1.329
		c12.003-1.733,23.604-4.974,34.857-9.475c0.436-0.174,0.845-0.413,1.581-0.778c-20.807-8.822-42.156-12.763-64.357-12.096
		C273.873,226.221,255.522,230.264,237.697,237.922z M181.17,280.613c-2.303,1.768-9.796,12.279-14.331,20.022
		c-10.298,17.585-16.74,36.496-19.393,56.689c-1.43,10.879-1.599,21.792-0.657,33.094c0.57-0.611,0.921-0.936,1.213-1.308
		c9.583-12.186,17.224-25.485,22.934-39.899c0.375-0.945,0.278-1.63-0.32-2.448c-3.118-4.264-6.18-8.569-9.254-12.864
		c-0.278-0.39-0.51-0.813-0.824-1.318c0.413-0.13,0.667-0.219,0.927-0.289c4.874-1.322,9.74-2.677,14.63-3.936
		c1.077-0.277,1.534-0.753,1.781-1.852c3.31-14.686,4.402-29.541,3.523-44.554C181.375,281.521,181.256,281.099,181.17,280.613z
		 M426.746,455.941c-15.912,4.086-30.7,10.557-44.539,19.439c1.024,6.471,2.035,12.866,3.073,19.428
		c-0.891-0.159-1.496-0.257-2.098-0.379c-6.44-1.303-12.886-2.58-19.313-3.947c-0.971-0.207-1.571,0.031-2.245,0.646
		c-10.025,9.146-18.746,19.396-26.127,30.783c-0.328,0.507-0.631,1.028-0.945,1.543c0.076,0.096,0.152,0.192,0.23,0.288
		c16.674-4.176,32.186-11.026,46.527-20.539C399.955,490.836,415.121,475.109,426.746,455.941z M169.131,457.069
		c13.361,21.067,30.498,37.758,51.663,50.314c11.714,6.949,35.718,16.564,40.186,16.126c-0.062-0.161-0.096-0.33-0.184-0.465
		c-7.695-11.863-16.856-22.464-27.42-31.86c-0.573-0.511-1.102-0.566-1.835-0.413c-5.99,1.253-11.989,2.459-17.988,3.67
		c-0.632,0.127-1.276,0.198-1.994,0.307c0.036-0.445,0.039-0.667,0.074-0.884c0.83-5.159,1.648-10.319,2.507-15.474
		c0.172-1.034,0.059-1.734-0.961-2.374c-13.235-8.292-27.376-14.507-42.429-18.652C170.334,457.249,169.9,457.207,169.131,457.069z
		 M199.603,429.152c10.287-5.929,20.366-11.737,30.463-17.556c-10.12-25.305-20.152-50.389-30.184-75.473
		c-0.093,0.03-0.186,0.06-0.279,0.089C199.603,367.097,199.603,397.979,199.603,429.152z M301.41,264.455
		c0,11.985,0,23.603,0,35.339c26.923,3.891,53.756,7.768,80.59,11.646c0.041-0.125,0.083-0.249,0.124-0.374
		C355.308,295.579,328.49,280.093,301.41,264.455z M312.324,481.29c0.103,0.106,0.206,0.212,0.309,0.316
		c26.762-15.454,53.522-30.908,80.463-46.466c-0.835-0.497-1.449-0.873-2.072-1.233c-8.796-5.09-17.596-10.175-26.391-15.27
		c-2.266-1.313-1.939-1.476-3.602,0.636c-15.71,19.961-31.408,39.93-47.107,59.899C313.377,479.868,312.856,480.584,312.324,481.29z
		 M203.037,434.999c0.168,0.213,0.243,0.389,0.375,0.465c26.712,15.412,53.428,30.818,80.146,46.221
		c0.031,0.018,0.104-0.009,0.141-0.037c0.035-0.026,0.047-0.082,0.108-0.198c-16.763-21.295-33.548-42.617-50.383-64.003
		C223.186,423.36,213.127,429.17,203.037,434.999z M415.789,282.093c-0.129,0.03-0.256,0.062-0.385,0.093
		c-0.065,1.374-0.141,2.748-0.194,4.123c-0.521,13.5,0.751,26.833,3.644,40.027c0.26,1.188,0.798,1.668,1.896,1.951
		c4.674,1.206,9.331,2.479,13.992,3.734c0.581,0.156,1.15,0.356,1.866,0.58c-0.378,0.573-0.662,1.038-0.979,1.48
		c-3.075,4.297-6.125,8.614-9.26,12.867c-0.696,0.943-0.732,1.701-0.314,2.752c5.44,13.666,12.654,26.318,21.619,37.975
		c0.254,0.331,0.568,0.614,1.093,1.172c1.613-21.938-1.13-42.933-8.485-63.302C434.553,309.683,426.375,295.198,415.789,282.093z
		 M294.495,264.476c-27.046,15.62-53.886,31.12-80.726,46.62c0.046,0.112,0.092,0.224,0.138,0.336
		c26.847-3.872,53.694-7.744,80.588-11.623C294.495,287.989,294.495,276.383,294.495,264.476z M365.964,411.343
		c1.271,1.195,29.188,17.235,30.395,17.514c0.358-4.175,0.182-91.551-0.237-92.898C386.027,361.19,375.982,386.3,365.964,411.343z
		 M178.448,425.531c0.153-12.188-9.597-23.606-23.508-23.668c-13.114-0.059-23.564,10.371-23.675,23.527
		c-0.109,12.973,10.565,23.67,23.534,23.691C167.829,449.104,178.437,438.54,178.448,425.531z M448.802,400.974
		c3.802,7.732,7.426,15.083,11.024,22.444c0.508,1.039,1.038,2.096,1.018,3.316c-1.101,0.667-2.128,0.256-3.134-0.047
		c-4.19-1.263-8.373-2.555-12.561-3.826c-3.866-1.174-7.74-2.32-11.601-3.514c-1.108-0.343-2.276-0.649-3.045-1.925
		c0.521-0.684,0.984-1.451,1.598-2.071c3.358-3.391,6.744-6.755,10.139-10.108c1.585-1.565,3.214-3.086,4.955-4.753
		c-9.397-1.883-17.418,0.374-23.588,7.548c-6.31,7.336-7.475,15.789-3.839,24.754c2.514,6.195,9.665,12.514,13.825,12.68
		c-0.238-0.796-0.579-1.629-0.732-2.495c-0.763-4.311-1.485-8.627-2.201-12.945c-0.433-2.602-0.882-5.202-1.217-7.817
		c-0.204-1.59,0.371-2.055,1.938-1.823c0.221,0.033,0.444,0.071,0.66,0.132c5.29,1.484,10.586,2.95,15.868,4.465
		c3.344,0.959,6.673,1.97,9.993,3.009c0.788,0.247,1.751,0.573,1.877,1.503c0.121,0.896-0.783,1.256-1.44,1.674
		c-5.823,3.704-11.637,7.424-17.475,11.104c-2.063,1.301-4.186,2.507-6.312,3.774c8.499,2.283,16.266,0.767,22.786-5.287
		c6.939-6.442,9.216-14.533,6.749-23.67C461.955,409.19,456.708,403.979,448.802,400.974z M202.347,442.66
		c-0.095,0.103-0.191,0.205-0.287,0.307c11.737,16.745,26.765,29.663,45.2,38.603c12.212,5.922,35.233,11.999,41.142,10.784
		C259.614,475.729,230.98,459.195,202.347,442.66z M231.098,255.118c0.166-12.193-9.576-23.616-23.483-23.693
		c-13.109-0.072-23.573,10.342-23.7,23.502c-0.125,12.968,10.548,23.687,23.51,23.717
		C220.459,278.675,231.083,268.117,231.098,255.118z M307.643,492.297c0.055,0.111,0.109,0.223,0.164,0.334
		c19.005-1.694,36.586-7.629,52.669-17.938c12.896-8.267,23.731-18.687,32.516-31.208c-0.083-0.108-0.167-0.216-0.251-0.324
		C364.374,459.54,336.008,475.919,307.643,492.297z M192.538,425.76c0-32.571,0-65.145,0-97.716
		c-7.295,15.022-10.88,30.887-11.075,47.505C181.255,393.115,184.834,409.886,192.538,425.76z M403.656,329.078
		c-0.115,0.022-0.231,0.045-0.347,0.068c0,31.807,0,63.613,0.004,95.42c0,0.036,0.057,0.083,0.098,0.104
		c0.047,0.021,0.104,0.018,0.3,0.044c7.222-15.992,10.629-32.797,10.245-50.354C413.611,358.566,410.202,343.453,403.656,329.078z
		 M412.674,255.662c0.096-12.197-9.714-23.563-23.614-23.562c-13.131,0.002-23.524,10.493-23.568,23.634
		c-0.042,12.992,10.638,23.595,23.64,23.585S412.682,268.71,412.674,255.662z M285.553,261.673
		c-13.973,1.028-33.776,6.251-52.137,18.524c-11.584,7.744-21.502,17.202-29.588,28.588
		C231.184,293.246,258.411,277.533,285.553,261.673z M321.549,528.438c0.137-12.188-9.629-23.594-23.54-23.638
		c-13.121-0.04-23.553,10.407-23.644,23.559c-0.09,12.979,10.585,23.648,23.564,23.661
		C310.953,552.032,321.542,541.459,321.549,528.438z M391.208,308.248c-9.531-13.173-21.348-23.778-35.39-31.889
		c-14.058-8.119-29.163-13.048-45.35-14.674C337.285,277.383,364.177,292.921,391.208,308.248z M404.058,280.192
		c-3.838,2.339-7.764,3.429-11.84,4.015c-4.141,0.597-8.181-0.193-12.265-1.084c9.673,8.752,17.92,18.593,24.848,29.636
		C403.615,301.986,403.599,291.248,404.058,280.192z M288.283,501.214c-12.65-1.096-24.825-3.897-36.671-8.392
		c7.168,7.836,13.661,16.134,19.529,25.239C274.629,509.896,280.312,504.4,288.283,501.214z M343.306,493.09
		c-11.563,4.28-23.417,6.948-35.687,8.108c7.92,3.138,13.556,8.594,16.971,16.313c3.068-4.288,5.933-8.52,9.037-12.567
		C336.729,500.897,340.069,497.033,343.306,493.09z M192.291,310.107c6.805-10.279,14.781-19.472,24.024-27.672
		c-8.277,2.507-16.082,1.277-23.639-2.736C193.178,289.973,193.184,300.008,192.291,310.107z M333.395,257.457
		c11.29,3.558,21.895,8.428,31.926,14.695c-4.431-7.304-6.101-15.025-3.981-23.639C352.099,252.33,342.841,255.129,333.395,257.457z
		 M422.393,369.396c0.469,11.902-0.507,23.613-3.143,35.469c0.445-0.314,0.647-0.41,0.787-0.564c4.753-5.251,10.657-8.3,17.66-9.267
		c0.293-0.041,0.564-0.234,0.812-0.342c-2.883-4.208-5.813-8.259-8.496-12.469C427.343,378.029,424.922,373.678,422.393,369.396z
		 M156.625,396.804c7.789,0.729,14.315,3.751,19.684,9.322c-0.208-1.667-0.563-3.229-0.865-4.802
		c-0.307-1.6-0.584-3.205-0.834-4.813c-0.25-1.608-0.471-3.224-0.668-4.84c-0.197-1.617-0.38-3.237-0.513-4.86
		c-0.133-1.625-0.224-3.253-0.283-4.881c-0.059-1.629-0.027-3.261-0.086-4.89c-0.057-1.573,0.203-3.166-0.138-4.871
		c-2.628,4.271-5.051,8.442-7.708,12.457C162.525,388.691,159.604,392.602,156.625,396.804z M412.606,425.877
		c-4.741,10.53-10.615,20.22-17.655,29.274c8.92-3.969,18.02-7.3,27.551-10.1C416.686,439.751,413.631,433.369,412.606,425.877z
		 M201.973,456.715c-3.786-4.645-7.128-9.212-10.137-14.021c-3.024-4.833-5.632-9.894-8.17-15.007
		c-0.679,3.562-1.379,7.022-2.94,10.242c-1.552,3.202-3.705,5.981-6.188,8.507c4.65,1.603,9.184,3.061,13.64,4.729
		C192.69,452.856,197.126,454.755,201.973,456.715z M231.202,271.293c5.068-2.618,9.956-5.394,15.055-7.706
		c5.079-2.303,10.369-4.141,15.618-6.202c-8.792-2.08-17.486-4.567-26.165-7.941C237.012,257.521,235.505,264.707,231.202,271.293z"
		/>
	<path fill-rule="evenodd" clip-rule="evenodd" d="M491.977,284.639c1.426-0.332,2.617-0.634,3.817-0.884
		c1.896-0.396,3.617-1.158,5.226-2.24c2.869-1.929,5.993-3.281,9.376-4.049c1.309-0.297,2.288-0.073,3.312,0.928
		c7.719,7.541,14.506,15.824,20.238,24.968c0.269,0.429,0.548,0.852,0.837,1.266c0.051,0.071,0.183,0.087,0.461,0.209
		c-1.306-4.71-2.87-9.202-4.54-13.652c-1.673-4.454-3.479-8.857-5.243-13.328c0.219-0.034,0.389-0.11,0.534-0.077
		c3.839,0.88,7.63,1.88,10.963,4.122c2.765,1.858,5.662,1.963,8.319-0.416c0.165-0.147,0.361-0.26,0.753-0.537
		c6.773,17.453,11.586,35.327,14.533,53.72c2.964,18.497,3.924,37.095,3.004,55.799c-0.916,18.642-3.782,36.973-8.613,55.167
		c-0.533,0-1.024,0.004-1.517,0c-5.005-0.05-10.004,0.07-14.982,0.646c-0.715,0.083-1.439,0.078-2.318,0.121
		c0.613-2.286,1.186-4.391,1.741-6.498c0.578-2.186,0.571-2.188-0.705-4.347c-0.378,0.17-0.786,0.315-1.159,0.523
		c-5.256,2.939-10.673,5.543-16.298,7.692c-1.053,0.402-1.665,0.972-1.911,2.078c-0.231,1.038-0.649,2.032-0.954,3.055
		c-0.179,0.597-0.525,0.953-1.144,1.089c-5.759,1.26-11.42,2.868-16.999,4.769c-0.042,0.014-0.101-0.023-0.393-0.101
		c2.898-7.77,5.51-15.614,7.576-23.631c2.078-8.063,3.705-16.212,4.843-24.457c1.139-8.25,1.784-16.539,1.971-24.867
		c0.188-8.387-0.118-16.754-0.892-25.103c-0.768-8.29-2.03-16.509-3.769-24.651c-1.736-8.141-3.942-16.153-6.616-24.037
		C498.757,300.039,495.617,292.352,491.977,284.639z M535.631,354.599c-1.141,3.589-1.054,18.421,0.151,31.524
		c0.876,9.535,4.882,27.365,6.925,30.579c0.076-0.262,0.159-0.46,0.19-0.666c2.132-13.635,3.185-27.351,3.041-41.152
		c-0.01-0.924-0.21-1.909-0.577-2.755c-2.488-5.735-5.514-11.188-8.898-16.442C536.23,355.326,535.941,355.001,535.631,354.599z
		 M511.198,288.527c-0.104,0.048-0.206,0.097-0.311,0.146c0.053,0.205,0.084,0.418,0.16,0.613c0.816,2.094,1.662,4.177,2.457,6.277
		c3.482,9.206,6.356,18.598,8.622,28.177c0.128,0.539,0.219,1.189,0.569,1.556c1.573,1.643,3.234,3.2,5,4.922
		c0.178-0.541,0.293-0.847,0.381-1.159c0.979-3.517,1.903-7.049,2.962-10.541c0.322-1.064,0.232-1.908-0.28-2.857
		c-4.046-7.494-8.743-14.547-14.228-21.063C514.797,292.536,512.979,290.548,511.198,288.527z M526.875,403.77
		c-0.771,4.932-1.448,9.88-2.341,14.789c-0.885,4.868-1.987,9.696-3.049,14.8c4.408-1.974,8.44-4.008,12.397-6.405
		C531.045,419.292,528.857,411.546,526.875,403.77z M538.474,334.469c-0.412,2.08-0.868,4.153-1.202,6.245
		c-0.064,0.409,0.273,0.941,0.544,1.335c0.921,1.342,1.894,2.647,2.85,3.964c0.55,0.758,1.106,1.51,1.66,2.264
		C541.614,343.501,540.393,338.935,538.474,334.469z"/>
	<path fill-rule="evenodd" clip-rule="evenodd" d="M333.586,164.869c1.447-1.329,2.746-2.561,4.086-3.746
		c4.099-3.624,7.708-7.719,11.22-11.887c1.366-1.622,2.862-2.354,4.955-2.623c10.703-1.376,21.402-1.559,32.125-0.334
		c0.104,0.012,0.216-0.04,0.387-0.075c0.072-1.04-0.759-1.239-1.453-1.482c-3.971-1.393-7.924-2.848-11.938-4.105
		c-4.334-1.359-8.729-2.523-13.098-3.775c-0.209-0.06-0.411-0.146-0.71-0.253c3.265-5.281,6.491-10.501,9.858-15.949
		c55.459,15.838,101.246,46.355,137.695,91.473c-0.691,0.227-1.103,0.345-1.5,0.495c-2.074,0.786-3.586,2.106-3.961,4.399
		c-0.172,1.047-0.314,2.119-0.282,3.174c0.116,3.833-0.774,7.46-2.091,11.233c-0.413-0.477-0.749-0.825-1.04-1.208
		c-1.09-1.432-2.245-2.822-3.22-4.329c-0.937-1.446-2.249-1.901-3.961-1.975c-0.118,0.489-0.273,0.959-0.342,1.441
		c-0.823,5.795-2.02,11.512-3.693,17.12c-0.354,1.187-0.361,2.14,0.519,3.083c0.491,0.527,0.832,1.195,1.334,1.939
		c-0.558,0.455-1.073,0.95-1.659,1.337c-0.89,0.586-1.78,1.217-2.757,1.617c-2.96,1.216-5.191,3.295-7.161,5.725
		c-0.175,0.217-0.369,0.416-0.623,0.7C441.229,206.926,393.892,176.126,333.586,164.869z M479.552,208.257
		c-0.237-0.295-0.455-0.608-0.714-0.883c-9.303-9.884-19.315-18.984-30.113-27.21c-0.688-0.524-1.56-0.93-2.404-1.1
		c-4.618-0.929-9.244-1.833-13.891-2.611c-2.293-0.384-4.636-0.48-6.955-0.708c-0.047,0.124-0.093,0.248-0.139,0.372
		C441.156,190.565,459.178,201.343,479.552,208.257z M360.826,154.836c-0.01,0.121-0.019,0.243-0.028,0.364
		c0.573,0.19,1.141,0.4,1.721,0.568c10.485,3.032,20.727,6.749,30.586,11.417c2.833,1.342,5.31,0.358,8.15,0.175
		c-0.279-0.446-0.408-0.689-0.571-0.906c-2.33-3.101-4.688-6.182-6.983-9.309c-0.528-0.721-1.177-0.928-1.985-1.063
		c-8.012-1.33-16.076-1.869-24.19-1.629C365.29,154.52,363.059,154.706,360.826,154.836z M460.36,213.28
		c6.573,6.86,12.896,13.969,18.984,21.666c1.151-4.699,1.942-9.091,2.438-13.4C474.545,218.752,467.453,216.016,460.36,213.28z
		 M411.494,161.126c-0.077,0.097-0.153,0.194-0.23,0.291c1.229,1.412,2.478,2.808,3.678,4.243c0.55,0.655,1.177,0.922,2.037,0.916
		c2.126-0.014,4.254,0.063,6.38,0.091c0.289,0.004,0.579-0.06,0.869-0.093C420.114,164.281,415.861,162.561,411.494,161.126z"/>
	<path fill-rule="evenodd" clip-rule="evenodd" d="M49.26,281.739c1.271,0.527,2.277,0.993,3.317,1.364
		c1.618,0.577,3.181,0.184,4.468-0.773c3.202-2.383,6.919-3.404,10.685-4.347c0.597-0.15,1.21-0.238,1.819-0.336
		c0.158-0.025,0.328,0.021,0.708,0.052c-0.239,0.615-0.432,1.165-0.662,1.698c-3.291,7.645-6.15,15.447-8.67,23.377
		c-0.308,0.967-0.458,1.84,0.441,2.755c0.291-0.396,0.597-0.759,0.842-1.158c5.771-9.393,12.652-17.892,20.503-25.625
		c1.056-1.04,2.023-1.47,3.41-0.832c2.033,0.937,4.232,1.597,6.104,2.78c3.058,1.934,6.317,3.134,9.841,3.744
		c0.379,0.066,0.746,0.203,1.152,0.316c-25.322,55.949-27.254,112.67-6.082,170.347c-0.316-0.065-0.63-0.092-0.915-0.195
		c-5.175-1.892-10.478-3.344-15.852-4.525c-1.084-0.238-1.624-0.746-1.889-1.799c-0.329-1.306-0.846-2.563-1.204-3.86
		c-0.183-0.667-0.53-1.063-1.159-1.313c-5.549-2.197-10.896-4.815-16.095-7.742c-0.09-0.051-0.213-0.039-0.567-0.097
		c-0.53,1.201-1.155,2.44-1.61,3.738c-0.165,0.471,0.007,1.102,0.143,1.63c0.473,1.839,0.997,3.664,1.516,5.546
		c-6.289-0.282-12.444-0.56-18.829-0.847c-4.853-17.852-7.658-36.127-8.648-54.682c-0.995-18.646,0.007-37.198,2.911-55.65
		C37.831,316.934,42.605,299.075,49.26,281.739z M61.418,354.653c-0.291,0.106-0.431,0.113-0.487,0.186
		c-0.241,0.31-0.47,0.63-0.682,0.959c-3.809,5.916-7.088,12.11-9.857,18.58c-0.521,1.218-0.77,2.427-0.759,3.749
		c0.095,11.642,0.927,23.227,2.591,34.749c0.301,2.086,0.67,4.16,1.008,6.24c0.131,0.002,0.262,0.003,0.394,0.005
		C60.682,398.207,63.311,376.753,61.418,354.653z M83.521,291.334c-0.078-0.041-0.156-0.083-0.234-0.124
		c-0.163,0.148-0.341,0.284-0.488,0.447c-6.677,7.445-12.298,15.622-16.999,24.443c-0.379,0.71-0.349,1.334-0.136,2.078
		c1.053,3.67,2.049,7.355,3.077,11.033c0.081,0.287,0.26,0.546,0.49,1.012c0.784-0.818,1.394-1.559,2.11-2.176
		c0.94-0.812,1.422-1.789,1.693-2.997c1.965-8.78,4.519-17.392,7.562-25.857C81.541,296.563,82.543,293.953,83.521,291.334z
		 M73.528,432.654c0.084-0.114,0.169-0.228,0.253-0.342c-0.603-2.731-1.241-5.456-1.8-8.196c-0.572-2.805-1.047-5.629-1.602-8.437
		c-0.529-2.678-0.698-5.424-1.432-8.432c-1.02,3.637-1.878,6.891-2.852,10.11c-0.97,3.209-2.056,6.383-3.153,9.763
		C66.5,428.98,70.014,430.817,73.528,432.654z M54.528,348.212c1.044-1.449,1.951-3.028,3.166-4.316
		c1.733-1.84,2.083-3.796,1.313-6.12c-0.348-1.053-0.498-2.171-0.804-3.563C56.917,336.982,54.545,345.611,54.528,348.212z"/>
	<path fill-rule="evenodd" clip-rule="evenodd" d="M88.802,212.232c36.19-44.896,81.727-75.381,136.95-91.359
		c3.371,5.412,6.625,10.637,9.923,15.932c-2.463,0.691-4.964,1.313-7.414,2.097c-5.505,1.76-10.985,3.599-16.474,5.409
		c-0.925,0.305-1.806,0.666-1.906,1.946c1.363-0.106,2.69-0.195,4.015-0.316c8.487-0.779,16.961-0.625,25.425,0.341
		c1.004,0.115,2.006,0.327,3.011,0.348c0.955,0.021,1.536,0.482,2.106,1.165c4.91,5.878,10.141,11.449,15.94,16.469
		c0.24,0.207,0.442,0.456,0.825,0.855c-29.154,5.106-55.97,15.565-80.584,31.575c-24.644,16.029-45.137,36.306-61.675,60.759
		c-0.624-0.72-1.136-1.299-1.636-1.889c-1.806-2.129-3.941-3.816-6.463-5.047c-1.402-0.684-2.718-1.545-4.29-2.452
		c0.864-1.253,1.562-2.39,2.386-3.425c0.739-0.928,0.826-1.796,0.492-2.943c-1.605-5.511-2.734-11.13-3.552-16.812
		c-0.039-0.272-0.099-0.541-0.187-1.015c-1.79,0.307-3.546,0.263-4.718,2.027c-1.118,1.684-2.406,3.254-3.625,4.87
		c-0.329,0.436-0.683,0.854-1.119,1.398c-1.803-4.137-2.927-8.229-2.479-12.588c0.389-3.785-1.368-5.824-4.268-6.969
		C89.331,212.549,89.192,212.449,88.802,212.232z M170.839,175.988c-5.347-0.047-17.848,1.953-22.639,3.494
		c-0.623,0.2-1.216,0.582-1.741,0.986c-10.721,8.247-20.711,17.3-29.944,27.187c-0.279,0.299-0.51,0.644-0.763,0.967
		C136.492,201.691,154.833,190.829,170.839,175.988z M195.001,167.394c1.872,0.213,3.52,0.43,5.175,0.567
		c0.355,0.029,0.75-0.205,1.103-0.367c10.562-4.872,21.435-8.905,32.613-12.122c0.372-0.107,0.716-0.313,1.073-0.473
		c-2.097-0.315-4.111-0.487-6.129-0.545c-8.104-0.231-16.157,0.293-24.162,1.604c-1.03,0.169-1.711,0.564-2.324,1.407
		c-2.146,2.951-4.374,5.842-6.566,8.76C195.56,166.521,195.368,166.842,195.001,167.394z M116.718,233.99
		c3.019-3.53,5.837-6.934,8.775-10.231c2.942-3.301,6.003-6.496,9.186-9.922c-6.877,2.613-13.454,5.112-20.16,7.66
		C114.924,225.607,115.703,229.708,116.718,233.99z M172.08,166.581c1.849,0,3.711-0.137,5.544,0.036
		c2.125,0.2,3.66-0.492,4.866-2.229c0.738-1.063,1.662-1.998,2.503-2.991c-0.077-0.094-0.153-0.187-0.229-0.281
		C180.397,162.596,176.114,164.283,172.08,166.581z"/>
	<path fill-rule="evenodd" clip-rule="evenodd" d="M202.21,569.598c3.311,1.519,6.598,3.089,9.936,4.544
		c13.428,5.856,27.33,10.237,41.667,13.225c8.42,1.754,16.925,2.976,25.499,3.678c0.575,0.047,1.204-0.171,1.759-0.389
		c0.757-0.297,1.467-0.713,2.33-1.145c-1.087,2.893-2.072,5.618-3.136,8.313c-1.109,2.811-0.502,5.763-0.693,8.828
		c-1.904-0.169-3.678-0.311-5.449-0.486c-1.342-0.134-2.676-0.382-4.019-0.439c-0.817-0.035-1.691,0.063-2.463,0.327
		c-7.408,2.532-14.985,4.385-22.715,5.576c-6.618,1.021-13.283,1.569-19.989,1.499c-0.561-0.006-1.122-0.001-1.738-0.001
		c1.551,1.166,14.797,4.773,24.494,6.708c8.298,1.655,16.655,2.927,25.308,3.832c-0.449,0.627-0.715,1.112-1.086,1.496
		c-2.264,2.342-4.508,4.705-6.854,6.963c-0.834,0.803-1.863,1.505-2.929,1.945c-2.552,1.054-4.5,2.539-4.819,5.664
		c-22.026-3.354-43.166-9.347-63.542-18.018c-30.912-13.153-58.33-31.544-82.425-55.065c4.891-8.343,9.021-16.987,12.287-26.157
		c7.57,2.77,14.712,6.119,21.863,9.641c-0.148-0.17-0.286-0.348-0.447-0.505c-0.2-0.196-0.419-0.375-0.629-0.562
		c-5.84-5.205-11.392-10.7-16.716-16.432c-0.83-0.894-1-1.656-0.625-2.833c1.671-5.252,2.896-10.616,3.748-16.064
		c0.033-0.207,0.086-0.413,0.162-0.775c4.081,4.492,7.943,8.994,12.08,13.227c4.163,4.259,8.475,8.393,12.953,12.316
		c4.478,3.923,9.129,7.672,13.914,11.213c4.784,3.541,9.771,6.818,14.774,10.05c4.998,3.229,10.219,6.089,15.559,8.764
		c0.039-0.157,0.107-0.279,0.074-0.321c-1.55-1.979-1.573-3.816-0.021-5.791c0.45-0.572,1.02-1.052,1.462-1.63
		c0.577-0.753,1.045-1.574,0.948-2.865c-0.67,0.389-1.179,0.676-1.681,0.977c-1.251,0.749-2.611,1.047-4.044,0.846
		c-0.363-0.051-0.682-0.42-1.021-0.643c0.229-0.335,0.383-0.813,0.701-0.98c0.996-0.523,2.017-0.974,2.554-2.171
		c-1.231-1.808-3.489-0.308-4.93-1.502c0.139-0.896,0.718-1.471,1.438-1.746c1.454-0.557,2.949-1.028,4.458-1.408
		c0.876-0.22,1.668-0.01,2.478,0.645c0.628,0.509,1.66,0.621,2.532,0.702c1.403,0.13,2.596,0.695,3.715,1.463
		c0.972,0.666,1.236,1.654,0.783,2.639c-0.415,0.9-1.241,1.256-2.417,0.997c-0.435-0.096-0.844-0.308-1.278-0.414
		c-0.57-0.139-1.154-0.226-1.752-0.339c0,2.012,0,3.832,0,5.928c0.751-0.26,1.297-0.481,1.861-0.637
		c0.856-0.237,1.69-0.22,2.326,0.516c0.671,0.777,0.636,1.645,0.211,2.52c-0.892,1.837-2.405,2.932-4.315,3.504
		c-0.691,0.207-1.416,0.305-2.125,0.453C202.219,569.383,202.215,569.49,202.21,569.598z M195.04,591.299
		c0.362,0.522,0.626,0.932,0.918,1.319c2.126,2.832,4.301,5.629,6.361,8.509c0.617,0.861,1.306,1.315,2.314,1.431
		c4.073,0.464,8.134,1.111,12.22,1.385c9.853,0.658,19.661,0.142,29.39-1.618c0.268-0.049,0.521-0.183,1.118-0.397
		c-0.629-0.185-0.886-0.267-1.146-0.335c-4.992-1.323-10.008-2.559-14.971-3.985c-7.616-2.19-15.052-4.912-22.357-7.983
		c-0.797-0.336-1.543-0.478-2.433-0.247c-1.409,0.364-2.863,0.563-4.304,0.799C199.841,590.555,197.528,590.908,195.04,591.299z
		 M122.808,552.604c0.256,0.291,0.496,0.6,0.771,0.871c10.058,9.932,20.896,18.924,32.502,26.99
		c0.537,0.373,1.189,0.703,1.824,0.791c3.89,0.542,7.79,1.016,11.688,1.488c0.389,0.048,0.796-0.061,1.489-0.122
		C156.675,569.487,140.718,559.496,122.808,552.604z M192.598,582.51c0.01-0.113,0.02-0.226,0.03-0.338
		c-3.973-2.184-7.945-4.367-11.918-6.552c2.027,2.424,4.204,4.636,6.397,6.829c0.182,0.183,0.483,0.361,0.722,0.352
		C189.42,582.732,191.009,582.612,192.598,582.51z M174.967,592.125c3.212,2.003,6.374,4.086,10.031,5.276
		c-1.297-1.718-2.681-3.321-4.117-4.876c-0.228-0.246-0.691-0.375-1.05-0.384C178.21,592.102,176.588,592.125,174.967,592.125z"/>
	<path fill-rule="evenodd" clip-rule="evenodd" d="M337.502,639.915c-0.191-0.575-0.354-0.93-0.426-1.301
		c-0.37-1.947-1.583-3.238-3.332-3.946c-2.191-0.887-4.009-2.238-5.617-3.925c-1.744-1.832-3.502-3.651-5.234-5.493
		c-0.369-0.391-0.656-0.856-1.146-1.507c17.378-1.728,34.162-5.064,50.577-10.542c-0.336-0.024-0.672-0.071-1.008-0.07
		c-14.633,0.031-28.859-2.386-42.692-7.124c-1.342-0.46-2.641-0.38-3.985-0.23c-2.681,0.296-5.364,0.573-8.048,0.841
		c-0.437,0.044-0.881,0.007-1.549,0.007c0-0.995-0.086-1.937,0.017-2.858c0.272-2.468-0.183-4.834-1.027-7.112
		c-0.877-2.364-1.929-4.665-2.903-6.993c-0.142-0.339-0.281-0.678-0.586-1.412c1.473,0.768,2.611,1.31,3.699,1.941
		c1.058,0.614,2.117,0.842,3.365,0.729c9.301-0.839,18.492-2.319,27.605-4.359c14.743-3.3,28.969-8.12,42.667-14.479
		c29.117-13.515,53.982-32.597,74.675-57.129c0.349-0.412,0.729-0.799,1.082-1.185c1.477,6.143,2.928,12.178,4.437,18.454
		c-5.944,6.559-12.481,12.876-19.338,18.872c0.066,0.104,0.132,0.21,0.198,0.314c1.795-0.939,3.581-1.895,5.388-2.813
		c1.803-0.916,3.613-1.817,5.441-2.681c1.88-0.887,3.772-1.749,5.683-2.567c1.851-0.792,3.733-1.513,5.773-2.335
		c3.397,9.204,7.525,17.912,12.538,26.308C442.488,606.668,393.923,631.095,337.502,639.915z M348.67,601.939
		c0.31,0.124,0.551,0.277,0.809,0.313c3.393,0.479,6.778,1.031,10.184,1.384c6.445,0.669,12.918,0.801,19.378,0.32
		c4.254-0.316,8.483-0.946,12.726-1.429c0.951-0.108,1.589-0.579,2.164-1.373c2.146-2.958,4.379-5.852,6.572-8.776
		c0.241-0.321,0.428-0.686,0.646-1.041c-3.888-0.664-7.61-1.228-11.297-1.969c-1.291-0.26-2.373-0.099-3.573,0.353
		c-6.203,2.327-12.379,4.753-18.676,6.798C361.414,598.528,355.092,600.12,348.67,601.939z M425.481,582.374
		c0.045,0.11,0.089,0.221,0.134,0.331c0.657,0,1.324,0.068,1.973-0.012c3.174-0.39,6.35-0.779,9.51-1.259
		c0.797-0.122,1.637-0.439,2.298-0.896c11.537-7.968,22.269-16.912,32.291-26.712c0.242-0.235,0.424-0.532,0.634-0.801
		C454.853,559.964,439.277,569.764,425.481,582.374z M416.979,574.224c-2.128,1.229-4.488,2.623-6.879,3.962
		c-2.396,1.342-4.82,2.629-7.232,3.94c1.606,0.421,3.111,0.516,4.607,0.685c0.915,0.104,1.585-0.154,2.217-0.849
		c1.204-1.325,2.521-2.546,3.751-3.849C414.706,576.775,415.921,575.392,416.979,574.224z M420.54,592.499
		c-0.039-0.124-0.078-0.249-0.117-0.374c-1.337,0-2.675-0.019-4.011,0.014c-0.312,0.008-0.719,0.095-0.913,0.303
		c-1.384,1.487-2.723,3.016-4.076,4.53c0.088,0.11,0.176,0.221,0.264,0.332C414.638,595.702,417.589,594.101,420.54,592.499z"/>
	<path fill-rule="evenodd" clip-rule="evenodd" d="M297.265,177.035c1.022-0.614,1.928-1.077,2.747-1.663
		c7.785-5.578,15.261-11.533,21.694-18.671c8.36-9.275,15.421-19.457,21.077-30.606c1.728-3.406,3.645-6.718,5.351-10.134
		c0.663-1.328,1.519-1.7,2.927-1.583c2.182,0.181,4.379,0.208,6.571,0.235c3.267,0.04,6.509-0.237,9.712-0.912
		c0.208-0.043,0.432-0.005,0.923-0.005c-0.456,1.148-0.768,2.207-1.272,3.165c-5.948,11.288-13.049,21.771-21.559,31.312
		c-4.991,5.594-10.115,11.059-16.01,15.678c-6.322,4.956-12.878,9.623-19.425,14.284c-3.358,2.391-7.263,3.772-11.077,5.28
		c-1.239,0.49-2.422,0.167-3.611-0.225c-4.028-1.329-7.756-3.28-11.326-5.535c-23.752-15.001-42.416-34.764-55.659-59.583
		c-0.731-1.371-1.335-2.809-2.137-4.51c1.078,0.175,1.784,0.294,2.491,0.402c4.689,0.721,9.394,0.779,14.125,0.495
		c2.863-0.172,2.347-0.62,4.021,2.036c1.044,1.659,1.925,3.429,2.79,5.193c6.04,12.33,13.337,23.82,22.527,34.072
		c6.189,6.904,13.216,12.846,20.691,18.285C294.279,175.093,295.795,176.046,297.265,177.035z"/>
	<path fill-rule="evenodd" clip-rule="evenodd" d="M562.022,449.914c-0.418,0.662-0.632,1.123-0.953,1.489
		c-3.185,3.622-5.441,7.832-7.683,12.054c-0.211,0.396-0.457,0.781-0.611,1.2c-0.34,0.917-0.97,1.291-1.938,1.265
		c-2.247-0.062-4.496-0.059-6.743-0.115c-5.279-0.132-10.561-0.433-15.838-0.381c-4.093,0.041-8.19,0.417-12.271,0.812
		c-10.844,1.049-21.368,3.487-31.47,7.607c-3.739,1.525-7.397,3.252-11.126,4.804c-1.134,0.472-1.514,1.173-1.396,2.322
		c0.259,2.512,0.405,5.038,0.735,7.54c0.928,7.022,2.114,14.002,4.224,20.78c3.503,11.262,8.321,21.94,14.513,31.986
		c2.417,3.923,4.934,7.784,7.381,11.689c1.532,2.446,1.543,2.479-0.011,4.907c-2.582,4.033-4.789,8.26-6.713,12.641
		c-0.241,0.55-0.546,1.072-0.937,1.836c-0.773-1.011-1.477-1.801-2.038-2.683c-9.996-15.706-16.907-32.699-20.92-50.853
		c-0.992-4.486-1.529-9.084-2.088-13.652c-0.628-5.129-1.12-10.276-1.528-15.427c-0.335-4.234,0.462-8.407,1.173-12.559
		c0.137-0.799,0.771-1.672,1.428-2.193c2.328-1.848,4.673-3.703,7.18-5.292c5.234-3.315,10.987-5.613,16.625-8.132
		c11.608-5.184,23.765-8.444,36.28-10.488c9.734-1.59,19.521-2.313,29.382-1.96c1.346,0.048,2.688,0.201,4.026,0.351
		C561.072,449.503,561.421,449.702,562.022,449.914z"/>
	<path fill-rule="evenodd" clip-rule="evenodd" d="M103.593,572.081c-3.073-5.711-5.995-11.142-9.08-16.875
		c1.138-1.875,2.372-4.078,3.767-6.173c3.774-5.665,7.342-11.449,10.417-17.528c5.196-10.274,9.344-20.938,11.491-32.281
		c1.002-5.293,1.84-10.64,2.334-16c0.41-4.443,0.738-3.66-3.083-5.461c-9.575-4.512-19.49-8.127-29.943-10.002
		c-4.69-0.841-9.441-1.442-14.192-1.831c-4.81-0.395-9.652-0.519-14.48-0.526c-3.987-0.007-7.974,0.345-11.962,0.503
		c-1.573,0.063-3.153-0.03-4.722,0.067c-1.051,0.064-1.708-0.37-2.187-1.213c-0.278-0.487-0.533-0.989-0.786-1.491
		c-2.127-4.228-4.452-8.327-7.539-11.952c-0.341-0.4-0.534-0.928-0.944-1.661c1.351-0.175,2.437-0.442,3.52-0.433
		c5.678,0.051,11.372-0.064,17.03,0.313c18.197,1.212,35.726,5.281,52.366,12.874c3.882,1.771,7.702,3.677,11.575,5.465
		c3.93,1.814,7.179,4.601,10.53,7.245c0.884,0.697,1.248,1.692,1.438,2.777c0.66,3.779,1.066,7.601,0.869,11.417
		c-0.563,10.843-1.576,21.67-4.146,32.229c-4.079,16.755-10.475,32.604-19.742,47.223c-0.421,0.664-0.774,1.376-1.239,2.008
		C104.539,571.241,104.065,571.612,103.593,572.081z"/>
	<path fill-rule="evenodd" clip-rule="evenodd" d="M514.567,262.563c-1.972-0.162-5.273-0.438-8.575-0.705
		c-2.825-0.229-4.504-2.749-3.146-5.836c2.565-5.835,5.522-11.488,9.584-16.405c9.117-11.039,19.076-21.256,30.599-29.838
		c4.968-3.701,10.354-6.743,15.788-9.696c0.882-0.48,1.845-0.822,2.789-1.178c0.41-0.154,0.87-0.26,1.306-0.252
		c1.148,0.021,1.639,0.849,1.01,1.825c-0.511,0.793-1.163,1.524-1.862,2.164c-4.352,3.982-7.101,8.944-8.92,14.477
		c-0.621,1.889-0.931,3.822-0.544,5.812c0.314,1.611,1.092,2.32,2.749,2.413c1.121,0.063,2.248,0.027,3.372,0.054
		c0.504,0.013,1.02,0.013,1.507,0.12c1.221,0.267,1.581,0.901,1.176,2.097c-0.179,0.526-0.479,1.014-0.747,1.507
		c-0.482,0.888-1.039,1.742-1.465,2.656c-0.885,1.902-0.607,3.117,1.182,4.153c1.341,0.776,2.809,1.446,4.306,1.824
		c5.596,1.413,11.205,1.575,16.796-0.165c1.063-0.33,2.208-0.386,3.311-0.594c0.604-0.114,1.124-0.064,1.453,0.53
		c0.348,0.627-0.016,1.105-0.41,1.498c-0.554,0.553-1.148,1.079-1.783,1.535c-3.98,2.863-8.291,5.168-12.646,7.391
		c-8.546,4.358-17.542,7.475-26.855,9.707c-4.909,1.177-9.811,2.39-14.743,3.464C525.228,262.114,520.578,262.501,514.567,262.563z
		 M548.327,219.773c-0.599,0.125-1.041,0.148-1.423,0.312c-0.979,0.42-1.966,0.842-2.888,1.371
		c-8.465,4.863-15.959,10.884-22.006,18.605c-2.569,3.281-4.938,6.696-6.605,10.542c-0.368,0.849-0.618,1.749-1.021,2.913
		c1.937,0.182,3.593,0.417,5.257,0.479c6.284,0.236,12.434-0.7,18.473-2.36c7.355-2.021,14.326-4.919,20.57-9.388
		c0.533-0.382,1.033-0.81,1.867-1.467c-0.84-0.188-1.295-0.334-1.762-0.387c-6.398-0.716-12.671-0.187-18.763,1.977
		c-3.171,1.126-6.326,2.3-9.48,3.477c-1.102,0.41-2.136,0.509-3.127-0.265c0.345-1.323,1.189-2.204,2.144-3.008
		c2.322-1.955,4.617-3.942,6.968-5.863c5.219-4.267,8.776-9.724,11.452-15.825C548.108,220.597,548.172,220.281,548.327,219.773z"/>
	<path fill-rule="evenodd" clip-rule="evenodd" d="M76.097,262.668c-6.506-0.343-12.817-1.67-19.083-3.271
		c-8.1-2.069-16.217-4.083-24.038-7.098c-7.473-2.881-14.445-6.739-21.228-10.955c-0.994-0.619-1.91-1.398-2.748-2.22
		c-0.337-0.331-0.652-1.17-0.472-1.432c0.285-0.415,1.013-0.778,1.519-0.737c1.164,0.097,2.329,0.373,3.453,0.712
		c5.956,1.8,11.883,1.439,17.766-0.265c1.212-0.351,2.355-1.061,3.422-1.768c1.313-0.87,1.567-1.893,1.002-3.375
		c-0.278-0.73-0.666-1.422-1.036-2.114c-0.424-0.792-0.926-1.545-1.32-2.352c-0.6-1.229-0.159-2.079,1.177-2.326
		c0.383-0.071,0.784-0.059,1.177-0.063c1.068-0.011,2.137,0,3.205-0.018c2.177-0.039,3.356-1.114,3.385-3.309
		c0.016-1.221-0.137-2.48-0.441-3.664c-1.516-5.894-4.357-11.05-8.731-15.33c-0.762-0.746-1.454-1.563-2.159-2.365
		c-0.448-0.509-0.654-1.203-0.206-1.685c0.299-0.322,0.994-0.407,1.497-0.375c0.538,0.035,1.076,0.294,1.585,0.519
		c5.938,2.624,11.375,6.109,16.682,9.804c5.644,3.93,10.881,8.352,15.66,13.301c4.607,4.772,9.311,9.462,13.723,14.411
		c4.971,5.575,8.662,12.02,11.732,18.817c0.23,0.51,0.438,1.04,0.57,1.582c0.507,2.075-0.879,4.353-2.996,4.699
		c-1.712,0.28-3.462,0.348-5.199,0.456C81.366,262.413,78.731,262.53,76.097,262.668z M67.37,245.97
		c-1.272,0.474-2.404,0.192-3.513-0.226c-1.997-0.751-3.986-1.521-5.973-2.298c-6.749-2.64-13.732-3.775-20.969-3.261
		c-0.861,0.061-1.778,0.018-2.477,0.736c9.381,8.217,31.018,15.193,46.023,12.519c-0.47-1.174-0.846-2.344-1.389-3.431
		c-2.503-5.017-5.815-9.484-9.52-13.661c-6.32-7.125-14.023-12.424-22.411-16.8c-0.179-0.093-0.392-0.121-0.811-0.246
		c0.163,0.701,0.202,1.264,0.42,1.746c2.67,5.903,6.089,11.262,11.167,15.438c2.648,2.179,5.228,4.443,7.813,6.698
		C66.527,243.879,67.348,244.604,67.37,245.97z"/>
	<path fill-rule="evenodd" clip-rule="evenodd" d="M321.365,687.902c-0.078,2.528-0.113,5.059-0.258,7.583
		c-0.057,0.993-0.287,1.993-0.579,2.948c-0.105,0.346-0.63,0.798-0.946,0.786c-0.412-0.017-1.003-0.354-1.174-0.717
		c-0.499-1.06-0.941-2.175-1.205-3.314c-1.404-6.057-4.678-11.026-8.967-15.374c-0.921-0.934-2.146-1.633-3.343-2.212
		c-1.684-0.815-2.644-0.485-3.741,1.086c-0.674,0.966-1.25,2-1.838,3.021c-1.463,2.541-2.453,2.543-3.973-0.006
		c-0.632-1.062-1.216-2.159-1.937-3.158c-1.102-1.528-2.174-1.813-3.771-0.854c-1.386,0.83-2.789,1.743-3.906,2.89
		c-3.952,4.05-6.781,8.783-8.202,14.309c-0.237,0.923-0.563,1.823-0.857,2.73c-0.086,0.266-0.2,0.524-0.31,0.781
		c-0.284,0.665-0.86,0.994-1.484,0.774c-0.376-0.132-0.804-0.666-0.862-1.068c-0.301-2.11-0.632-4.232-0.696-6.358
		c-0.409-13.487,1.585-26.651,5.481-39.548c1.396-4.62,2.684-9.275,4.187-13.86c2.438-7.439,6.466-14.048,10.864-20.469
		c1.505-2.197,5.225-2.563,7.107,0.164c4.916,7.114,9.115,14.57,11.652,22.877c2.705,8.86,5.323,17.747,7.025,26.87
		c0.837,4.481,1.291,9.005,1.512,13.555c0.105,2.188,0.225,4.374,0.338,6.563C321.444,687.9,321.405,687.901,321.365,687.902z
		 M285.171,675.529c0.831-1.033,1.461-1.73,1.995-2.494c3.896-5.581,6.172-11.813,7.371-18.474c0.527-2.929,1.091-5.851,1.634-8.776
		c0.154-0.827,0.444-1.514,1.676-1.539c0.355,0.935,0.854,1.889,1.075,2.902c0.512,2.357,0.956,4.735,1.312,7.122
		c1.106,7.423,3.724,14.208,8.345,20.169c0.25,0.323,0.559,0.604,1.052,1.13c0.171-1.433,0.378-2.534,0.422-3.642
		c0.28-7.238-0.509-14.371-2.358-21.369c-1.629-6.167-3.97-12.056-7.407-17.458c-0.833-1.311-1.841-2.509-2.872-3.897
		c-0.646,0.727-1.152,1.243-1.6,1.808c-1.935,2.437-3.416,5.148-4.675,7.979c-3.779,8.5-5.99,17.4-6.655,26.677
		C284.26,668.81,284.344,671.949,285.171,675.529z"/>
	<path fill-rule="evenodd" clip-rule="evenodd" d="M337.342,130.927c-2.002,5.198-4.438,9.984-8.182,13.991
		c-6.699,7.167-14.027,13.625-22.016,19.328c-2.168,1.548-4.496,2.746-7.121,3.326c-2.793,0.617-5.501,0.279-8.066-0.873
		c-1.628-0.731-3.217-1.621-4.671-2.655c-7.625-5.427-14.598-11.611-21.086-18.352c-3.523-3.659-5.939-8.018-8.044-12.578
		c-0.657-1.425-0.394-2.737,0.566-3.937c0.21-0.263,0.428-0.522,0.666-0.76c9.396-9.386,20.374-16.144,33.114-20.005
		c3.563-1.08,7.023-1.011,10.57,0.172c11.645,3.883,21.973,9.925,30.789,18.488C335.104,128.28,336.192,129.646,337.342,130.927z
		 M277.66,138.408c-0.058,3.136,0.422,5.415,1.737,7.98c3.284,6.408,8.258,11.167,14.474,14.676c2.27,1.281,4.65,1.29,6.924,0.006
		c6.002-3.389,10.885-7.919,14.157-14.071c1.543-2.9,2.263-5.974,2.134-9.249c-0.182-4.666-1.333-9.103-3.211-13.359
		c-1.988-4.505-5.07-8.072-9.291-10.618c-2.021-1.219-4.101-2.338-6.129-3.543c-0.698-0.415-1.293-0.479-2.027-0.056
		c-1.897,1.093-3.862,2.071-5.752,3.178c-3.565,2.089-6.359,4.955-8.492,8.501C279.117,126.954,277.809,132.518,277.66,138.408z"/>
	<path fill-rule="evenodd" clip-rule="evenodd" d="M535.801,491.248c0.085,6.313-0.51,12.392-1.948,18.382
		c-0.828,3.441-2.583,6.31-5.19,8.688c-9.69,8.839-20.891,14.897-33.559,18.26c-2.659,0.705-3.496,0.352-5.152-1.886
		c-3.945-5.334-6.33-11.31-7.79-17.759c-1.576-6.963-3.097-13.93-3.896-21.024c-0.263-2.329-0.3-4.738-0.018-7.059
		c0.488-3.997,2.589-7.155,5.967-9.365c1.451-0.949,2.985-1.811,4.57-2.509c8.802-3.871,17.85-7.022,27.259-9.074
		c4.271-0.932,8.571-0.953,12.906-0.517c2.365,0.237,3.594,1.48,4.146,3.718C534.74,477.776,536.107,484.479,535.801,491.248z
		 M530.439,508.261c0.048-0.003,0.097-0.007,0.146-0.011c-0.179-2.182-0.297-4.37-0.559-6.542c-0.134-1.105-0.464-2.199-0.809-3.265
		c-2.464-7.616-7.546-13-14.379-16.934c-2.813-1.62-5.805-2.377-9.006-2.381c-6.638-0.007-12.716,1.974-18.375,5.328
		c-2.321,1.377-3.4,3.538-3.406,6.205c-0.018,7.012,1.583,13.585,5.409,19.536c1.297,2.016,2.932,3.718,4.971,4.969
		c5.18,3.18,10.836,4.929,16.901,5.079c4.881,0.121,9.427-1.273,13.604-3.812c1.488-0.904,2.93-1.887,4.438-2.757
		c0.769-0.444,1.142-0.956,1.081-1.875C530.381,510.627,530.439,509.442,530.439,508.261z"/>
	<path fill-rule="evenodd" clip-rule="evenodd" d="M58.782,490.25c-0.141-3.686,0.701-8.614,1.656-13.53
		c0.289-1.489,0.587-2.977,0.882-4.464c0.055-0.275,0.097-0.553,0.164-0.826c0.71-2.904,1.646-3.698,4.587-4.066
		c5.028-0.629,9.993-0.265,14.878,0.999c8.379,2.168,16.596,4.836,24.49,8.415c1.683,0.764,3.343,1.621,4.893,2.621
		c4.193,2.708,6.287,6.609,6.271,11.618c-0.018,5.595-0.902,11.084-2.069,16.531c-0.941,4.394-1.921,8.78-2.967,13.149
		c-1.333,5.568-4.143,10.409-7.559,14.934c-0.694,0.919-1.542,1.467-2.75,1.188c-1.637-0.378-3.305-0.655-4.906-1.149
		c-11.062-3.413-20.89-9.015-29.594-16.647c-3.205-2.811-5.269-6.131-6.175-10.345C59.37,503.034,58.919,497.345,58.782,490.25z
		 M64.181,513.134c3.101,1.746,5.937,3.467,8.884,4.969c3.045,1.553,6.358,2.265,9.776,2.173c5.761-0.154,11.209-1.562,16.259-4.398
		c2.863-1.607,5.097-3.841,6.754-6.675c3.229-5.524,4.622-11.519,4.763-17.876c0.078-3.481-1.409-5.878-4.443-7.491
		c-4.563-2.425-9.342-4.061-14.513-4.588c-4.511-0.458-8.728,0.248-12.618,2.634c-4.636,2.844-8.381,6.592-11.263,11.197
		c-1.597,2.552-2.846,5.292-3.09,8.303C64.379,505.24,64.342,509.122,64.181,513.134z"/>
	<path fill-rule="evenodd" clip-rule="evenodd" d="M297.336,600.135c-0.641,0.693-1.267,1.251-1.75,1.912
		c-9.316,12.737-15.513,26.913-19.288,42.179c-1.077,4.357-1.941,8.769-2.866,13.163c-0.172,0.818-0.091,1.69-0.265,2.508
		c-0.105,0.497-0.381,1.195-0.754,1.334c-0.379,0.141-1.092-0.169-1.448-0.505c-0.895-0.845-1.744-1.76-2.48-2.745
		c-3.724-4.982-5.952-10.672-7.628-16.595c-0.58-2.048-0.007-2.959,1.932-3.88c1.061-0.503,2.16-1.004,3.075-1.718
		c6.483-5.067,11.677-11.179,14.898-18.828c1.797-4.266,2.576-8.717,2.205-13.341c-0.16-2,0.165-3.881,0.819-5.781
		c2.388-6.94,6.182-13.08,10.553-18.902c0.335-0.446,0.712-0.878,1.14-1.234c1.255-1.045,2.755-0.991,3.962,0.123
		c0.328,0.303,0.601,0.668,0.87,1.026c3.087,4.092,5.884,8.374,8.101,12.999c1.09,2.271,1.945,4.656,2.84,7.016
		c0.676,1.782,0.474,3.661,0.391,5.511c-0.209,4.635,0.679,9.058,2.541,13.289c1.968,4.471,4.717,8.425,8.072,11.958
		c1.471,1.548,3.001,3.042,4.531,4.532c1.502,1.465,3.211,2.613,5.174,3.403c1.746,0.702,2.396,1.786,1.908,3.601
		c-1.824,6.789-4.527,13.173-9.093,18.63c-0.392,0.468-0.878,0.882-1.389,1.218c-0.923,0.608-1.47,0.403-1.696-0.684
		c-0.322-1.538-0.531-3.099-0.806-4.646c-2.224-12.562-5.901-24.668-11.306-36.239c-2.939-6.295-6.901-11.965-10.75-17.705
		C298.465,601.187,297.926,600.757,297.336,600.135z"/>
	<path fill-rule="evenodd" clip-rule="evenodd" d="M529.877,215.957c-1.428,1.221-2.788,2.38-4.143,3.545
		c-9.365,8.06-18.011,16.791-25.111,26.96c-3.448,4.939-6.536,10.095-9.083,15.559c-0.663,1.422-1.179,2.912-1.723,4.386
		c-0.167,0.452-0.207,0.953-0.35,1.647c0.963,0.171,1.766,0.394,2.579,0.445c3.646,0.236,7.293,0.428,10.941,0.628
		c4.62,0.252,9.222-0.095,13.792-0.687c11.17-1.448,22.04-4.176,32.636-7.993c1.582-0.57,3.147-1.186,4.723-1.775
		c0.043-0.017,0.105,0.019,0.232,0.044c0.67,0.684,0.784,1.511,0.391,2.417c-0.894,2.056-1.68,4.17-2.729,6.144
		c-2.26,4.252-5.299,7.94-8.678,11.349c-1.605,1.621-2.545,1.75-4.465,0.497c-5.033-3.287-10.71-4.507-16.536-5.25
		c-3.356-0.429-6.717-0.448-10.089-0.051c-4.429,0.523-8.58,1.87-12.26,4.364c-2.7,1.831-5.66,2.671-8.798,3.107
		c-5.375,0.749-10.759,0.648-16.143,0.086c-1.285-0.134-2.591-0.158-3.85-0.414c-1.907-0.387-3.064-2.408-2.322-4.124
		c2.748-6.355,5.781-12.558,10.176-17.99c1.819-2.25,3.848-4.134,6.533-5.426c5.041-2.427,8.839-6.316,11.785-11.037
		c3.681-5.9,5.982-12.309,6.837-19.212c0.179-1.442,0.054-2.919,0.12-4.378c0.085-1.891,0.645-2.701,2.436-3.167
		c6.532-1.698,13.156-2.279,19.877-1.444C527.858,214.338,528.943,214.744,529.877,215.957z"/>
	<path fill-rule="evenodd" clip-rule="evenodd" d="M40.152,258.51c0.996,0.345,1.902,0.618,2.779,0.969
		c9.472,3.784,19.27,6.383,29.315,8.096c6.16,1.05,12.353,1.793,18.611,1.608c4.043-0.12,8.082-0.426,12.12-0.702
		c0.752-0.052,1.488-0.359,2.462-0.607c-0.269-0.95-0.398-1.776-0.727-2.513c-6.665-14.955-16.25-27.816-28.154-38.982
		c-3.809-3.573-7.765-6.988-11.717-10.533c0.552-0.983,1.618-1.444,2.809-1.62c3.578-0.53,7.186-0.547,10.771-0.225
		c2.621,0.235,5.213,0.789,7.815,1.215c0.498,0.081,0.995,0.199,1.471,0.359c2.654,0.893,2.904,1.881,2.667,3.932
		c-0.38,3.286,0.245,6.49,1.199,9.638c1.523,5.026,3.542,9.82,6.411,14.244c2.785,4.294,6.348,7.736,10.977,9.956
		c2.55,1.224,4.611,2.97,6.387,5.12c3.284,3.974,5.731,8.46,8.018,13.044c0.777,1.558,1.499,3.145,2.209,4.734
		c0.992,2.225-0.108,4.399-2.53,4.817c-1.543,0.267-3.126,0.332-4.695,0.428c-5.559,0.338-11.118,0.62-16.635-0.505
		c-2.558-0.521-4.963-1.399-7.141-2.869c-4.314-2.911-9.158-4.23-14.285-4.518c-6.585-0.369-12.991,0.641-19.211,2.835
		c-1.917,0.677-3.734,1.521-5.376,2.752c-1.507,1.13-2.577,1.134-3.915-0.169c-5.049-4.917-9.167-10.492-11.676-17.145
		C39.605,260.531,39.65,260.329,40.152,258.51z"/>
	<path fill-rule="evenodd" clip-rule="evenodd" d="M103.247,313.404c-0.585,0.673-1.208,1.385-1.828,2.099
		c-1.118,1.289-2.35,2.414-4.034,2.928c-1.065,0.324-1.899,0.12-2.563-0.673c-0.634-0.757-0.763-1.775-0.239-2.671
		c0.278-0.476,0.639-0.951,1.074-1.277c2.052-1.54,3.656-3.487,5.149-5.536c2.643-3.627,6.2-5.962,10.375-7.449
		c0.763-0.271,1.489-0.46,2.282,0.44c-0.565,0.495-1.057,0.994-1.616,1.401c-2.062,1.505-3.874,3.25-5.302,5.374
		c-0.367,0.546-0.692,1.119-1.037,1.68c0.093,0.087,0.187,0.174,0.28,0.261c0.644-0.615,1.29-1.229,1.933-1.845
		c0.851-0.815,1.656-1.676,2.9-1.925c1.154-0.23,2.354,0.163,2.954,1.092c0.632,0.977,0.497,1.963-0.177,2.823
		c-0.62,0.792-1.338,1.514-2.071,2.206c-0.629,0.595-0.869,1.185-0.647,2.083c0.408,1.654,0.229,1.902-1.407,1.978
		c-0.783,0.036-1.012,0.579-1.422,1.012c-0.611,0.646-1.201,1.336-1.915,1.848c-0.336,0.241-0.995,0.255-1.396,0.095
		c-0.204-0.081-0.23-0.781-0.215-1.197c0.036-1.011,0.089-2.025,0.234-3.024C104.705,314.137,104.263,313.661,103.247,313.404z"/>
	<path fill-rule="evenodd" clip-rule="evenodd" d="M143.921,243.219c1.17,0.889,1.174,0.895,2.167,0.181
		c0.819-0.59,1.616-1.213,2.445-1.79c0.346-0.241,0.749-0.399,1.16-0.612c0.597,0.771,0.735,1.509,0.531,2.305
		c-0.139,0.541-0.257,1.114-0.531,1.588c-0.566,0.98-0.598,1.869,0.132,2.77c0.126,0.157,0.141,0.405,0.261,0.781
		c-0.641,0.277-1.217,0.608-1.838,0.774c-0.82,0.22-1.196,0.682-1.324,1.512c-0.118,0.771-0.351,1.532-0.61,2.271
		c-0.549,1.563-1.783,2.45-2.973,2.202c-1.5-0.313-2.538-1.743-2.338-3.417c0.112-0.938,0.445-1.849,0.672-2.773
		c0.129-0.527,0.247-1.057,0.101-1.708c-0.22,0.278-0.481,0.533-0.652,0.838c-1.218,2.188-1.931,4.529-2.13,7.03
		c-0.07,0.881-0.15,1.787-1.2,2.524c-0.29-0.579-0.618-1.06-0.782-1.591c-0.957-3.101-0.785-6.221,0.067-9.298
		c0.433-1.56,1.051-3.074,1.663-4.576c0.745-1.827,1.344-3.678,1.571-5.651c0.068-0.592,0.338-1.175,0.592-1.728
		c0.438-0.95,1.271-1.191,2.244-1.115c0.927,0.073,1.574,0.519,1.917,1.396c0.535,1.369,0.452,2.765,0.089,4.136
		C144.801,240.612,144.331,241.924,143.921,243.219z"/>
	<path fill-rule="evenodd" clip-rule="evenodd" d="M489.003,310.294c-0.581-2.182-1.834-3.83-3.336-5.25
		c-1.445-1.365-3.05-2.563-4.544-3.8c0.441-0.862,0.965-0.605,1.434-0.495c4.368,1.034,7.963,3.321,10.739,6.829
		c1.853,2.338,3.623,4.732,6.084,6.498c0.307,0.221,0.539,0.575,0.739,0.908c0.579,0.962,0.465,1.975-0.273,2.789
		c-0.78,0.861-1.665,1.094-2.715,0.616c-1.604-0.73-3.014-1.74-4.167-3.087c-0.51-0.596-1.021-1.191-1.517-1.772
		c-1.46,0.482-1.445,0.48-1.314,1.799c0.131,1.321,0.228,2.646,0.339,3.958c-1.171,0.45-1.917-0.037-2.597-0.643
		c-0.373-0.333-0.716-0.727-0.982-1.149c-0.494-0.781-1.093-1.247-2.076-1.062c-0.251,0.047-0.53-0.054-0.969-0.106
		c0.064-0.788,0.059-1.507,0.201-2.196c0.142-0.687,0.008-1.192-0.527-1.645c-0.472-0.397-0.918-0.832-1.333-1.288
		c-0.375-0.412-0.752-0.844-1.023-1.325c-0.502-0.887-0.612-1.849,0.034-2.7c0.705-0.93,1.747-1.364,2.836-0.966
		c0.916,0.334,1.78,0.924,2.532,1.561C487.455,308.52,488.197,309.444,489.003,310.294z"/>
	<path fill-rule="evenodd" clip-rule="evenodd" d="M444.727,248.464c-0.053-0.301-0.091-0.378-0.068-0.406
		c1.07-1.334,0.672-2.62,0.024-4.007c-0.54-1.158-0.396-1.455,0.399-2.731c1.373,0.205,2.307,1.207,3.355,2.009
		c1.065,0.815,1.072,0.806,2.451-0.087c-0.3-0.849-0.594-1.743-0.929-2.62c-0.575-1.504-0.742-3.052-0.562-4.641
		c0.163-1.434,0.931-2.19,2.249-2.249c1.48-0.065,2.105,0.585,2.523,2.107c0.757,2.755,1.489,5.538,2.542,8.186
		c1.39,3.499,1.769,7.062,1.431,10.751c-0.103,1.118-0.3,2.212-1.4,3.209c-0.234-0.47-0.478-0.804-0.575-1.176
		c-0.568-2.173-1.067-4.364-1.659-6.531c-0.438-1.608-0.652-1.896-1.76-3.049c0.048,0.581,0.039,0.987,0.12,1.375
		c0.207,0.989,0.516,1.96,0.66,2.957c0.086,0.591,0.048,1.249-0.127,1.817c-0.324,1.061-1.187,1.625-2.231,1.838
		c-0.867,0.176-1.991-0.479-2.44-1.472c-0.367-0.812-0.667-1.684-0.812-2.559c-0.188-1.144-0.778-1.794-1.851-2.123
		C445.596,248.916,445.158,248.659,444.727,248.464z"/>
	<path fill-rule="evenodd" clip-rule="evenodd" d="M321.969,577.221c1.246-0.456,2.113-0.103,2.986,0.302
		c2.219,1.03,4.553,1.564,7,1.591c0.541,0.006,1.082-0.044,1.623-0.068c0.02-0.11,0.039-0.221,0.059-0.332
		c-0.77-0.229-1.536-0.466-2.309-0.684c-0.754-0.213-1.537-0.344-2.265-0.622c-1.374-0.526-2.05-1.791-1.817-3.233
		c0.179-1.108,0.899-1.854,2.031-1.879c0.77-0.018,1.59,0.062,2.306,0.322c1.745,0.637,3.185,0.449,4.292-1.161
		c0.084-0.123,0.271-0.178,0.604-0.384c0.307,0.431,0.658,0.83,0.899,1.288c0.349,0.662,0.833,0.947,1.589,1.025
		c1.263,0.131,2.602,0.18,3.484,1.375c-0.073,0.887-0.766,1.21-1.405,1.523c-0.702,0.345-1.445,0.609-2.18,0.885
		c-0.913,0.341-1.437,0.886-0.958,2.198c0.985,0.204,2.166,0.465,3.353,0.688c1.342,0.253,2.607,0.654,3.658,1.581
		c1.052,0.929,1.343,2.055,0.792,3.153c-0.487,0.97-1.595,1.424-2.896,1.095c-2.114-0.536-4.201-1.185-6.325-1.672
		c-1.58-0.361-3.222-0.458-4.801-0.822c-3.363-0.774-6.213-2.531-8.721-4.859C322.6,578.189,322.348,577.725,321.969,577.221z"/>
	<path fill-rule="evenodd" clip-rule="evenodd" d="M256.73,579.286c0.084-0.451,0.164-0.882,0.242-1.298
		c-0.166-0.157-0.266-0.309-0.406-0.376c-1.162-0.559-2.34-1.083-3.495-1.656c-1.029-0.511-1.113-1.257-0.121-1.835
		c0.653-0.38,1.458-0.563,2.219-0.678c0.919-0.14,1.684-0.355,2.301-1.166c0.686-0.9,1.03-0.904,1.924-0.073
		c0.957,0.889,1.977,0.906,3.125,0.594c0.808-0.219,1.625-0.459,2.453-0.532c1.179-0.104,2.032,0.461,2.427,1.422
		c0.401,0.975,0.19,2.261-0.692,2.903c-0.797,0.58-1.737,0.985-2.652,1.377c-0.505,0.217-1.092,0.235-1.636,0.364
		c-0.483,0.113-0.959,0.255-1.438,0.709c0.783,0.043,1.572,0.173,2.347,0.117c2.542-0.182,4.942-0.946,7.302-1.866
		c0.538-0.21,1.118-0.311,1.835-0.504c-0.06,1.403-0.847,2.072-1.613,2.652c-2.755,2.091-5.76,3.691-9.217,4.281
		c-1.325,0.226-2.675,0.32-3.988,0.595c-1.475,0.309-2.923,0.749-4.38,1.139c-0.648,0.173-1.283,0.425-1.941,0.525
		c-1.138,0.175-1.978-0.325-2.457-1.35c-0.458-0.979-0.301-1.736,0.543-2.574c1.024-1.015,2.25-1.656,3.655-1.964
		C254.27,579.829,255.471,579.563,256.73,579.286z"/>
	<path fill-rule="evenodd" clip-rule="evenodd" d="M410.318,205.804c-1.684,1.212-2.925,2.64-5.297,2.542
		c0.546,0.75,0.835,1.242,1.219,1.645c0.384,0.402,0.897,0.679,1.29,1.074c0.794,0.796,0.904,1.568,0.421,2.43
		c-0.52,0.926-1.369,1.312-2.438,0.924c-1.324-0.48-2.595-1.114-3.42-2.336c-0.639-0.945-1.34-1.756-2.467-2.184
		c-0.481-0.183-1-0.641-1.209-1.105c-0.956-2.125-1.266-4.36-0.983-6.608c1.159-0.403,1.783,0.003,2.261,0.844
		c0.499,0.878,1.054,1.727,2.16,1.863c1.205-1.326,0.278-3.113,1.136-4.66c2.55,1.596,2.189,4.143,2.363,6.523
		c1.004-0.088,1.393-0.695,1.688-1.352c0.344-0.766,0.59-1.575,0.925-2.345c0.266-0.615,0.539-1.244,0.918-1.79
		c1.492-2.151,4.426-2.128,5.948,0.016c1.383,1.948,1.266,5.429-0.242,7.295c-0.555,0.689-1.214,1.21-2.152,1.025
		c-0.927-0.183-1.415-0.834-1.607-1.742C410.707,207.277,410.543,206.697,410.318,205.804z"/>
	<path fill-rule="evenodd" clip-rule="evenodd" d="M97.82,330.074c-1.225,0.073-1.979-0.389-2.433-1.493
		c-0.138-0.336-0.614-0.595-0.992-0.76c-1.511-0.66-1.708-1.725-0.426-2.758c1.513-1.22,3.304-1.647,5.203-1.545
		c1.323,0.072,2.113,1.361,1.73,2.687c-0.124,0.428-0.337,0.829-0.518,1.24c-0.176,0.402-0.361,0.801-0.634,1.404
		c0.666,0.075,1.192,0.137,1.718,0.194c0.891,0.098,1.805,0.097,2.667,0.309c2.494,0.611,3.232,2.967,1.562,4.916
		c-0.472,0.551-1.045,1.018-1.583,1.509c-0.706,0.643-1.395,1.308-2.15,1.888c-0.265,0.204-0.843,0.369-1.027,0.227
		c-0.294-0.226-0.573-0.762-0.508-1.1c0.121-0.636,0.491-1.223,0.804-1.934c-0.663-0.084-1.133,0.273-1.565,0.667
		c-1.371,1.244-2.738,2.492-4.084,3.764c-0.742,0.7-1.478,1.375-2.673,1.429c-0.599-0.819-0.65-1.68-0.322-2.647
		C93.632,334.998,94.953,332.118,97.82,330.074z"/>
	<path fill-rule="evenodd" clip-rule="evenodd" d="M360.163,568.401c0.115,1.758-0.085,1.903-2.578,1.898
		c0.448,0.833,1.154,1.185,1.928,1.413c1.503,0.444,3.026,0.824,4.521,1.293c0.687,0.215,1.381,0.497,1.973,0.895
		c0.694,0.465,0.665,0.968-0.002,1.487c-1.054,0.821-2.283,1.237-3.604,1.203c-2.336-0.059-4.668-0.206-7.075-0.32
		c0.775,1.109-0.251,1.881-0.844,2.813c0.264,0.55,0.521,1.086,0.768,1.6c-1.359,1.193-1.831,1.28-3.181,0.602
		c-1.341-0.673-2.397-1.669-3.147-2.958c-0.994-1.71-0.284-3.127,1.654-3.382c0.661-0.088,1.323-0.179,2.027-0.273
		c0.265-1.048-0.358-1.755-0.778-2.508c-0.587-1.053-1.05-2.106-0.664-3.354c0.382-1.233,1.123-1.964,2.415-1.945
		c0.986,0.013,1.978,0.286,2.949,0.52c0.594,0.143,1.142,0.47,1.732,0.639C358.84,568.189,359.449,568.265,360.163,568.401z"/>
	<path fill-rule="evenodd" clip-rule="evenodd" d="M430.267,228.871c1.649-0.529,2.28,0.717,3.183,1.99
		c0.236-1.331,0.221-2.307-0.026-3.275c-0.389-1.522-0.827-3.033-1.213-4.557c-0.354-1.402-0.337-1.406,0.673-2.707
		c2.205,0.616,4.473,3.965,6.385,9.493c0.729-0.641,1.433-1.272,2.524-0.891c0.259,0.09,0.784-0.328,1.067-0.625
		c0.427-0.448,0.854-0.738,1.475-0.522c0.653,0.227,0.94,0.722,1.045,1.395c0.289,1.857-0.024,3.592-1.033,5.172
		c-0.856,1.343-2.534,1.455-3.561,0.238c-0.466-0.552-0.817-1.199-1.243-1.836c-0.909,0.125-1.136,0.873-1.465,1.483
		c-0.545,1.009-1.195,1.904-2.254,2.427c-1.642,0.812-3.146,0.358-3.968-1.278c-0.322-0.641-0.488-1.368-0.673-2.069
		c-0.326-1.238-0.619-2.486-0.909-3.734C430.227,229.371,430.267,229.147,430.267,228.871z"/>
	<path fill-rule="evenodd" clip-rule="evenodd" d="M161.454,230.319c0.449-0.473,0.838-1.038,1.371-1.383
		c0.294-0.19,0.894-0.133,1.228,0.048c0.191,0.104,0.223,0.698,0.159,1.041c-0.234,1.261-0.512,2.516-0.828,3.759
		c-0.164,0.646-0.365,1.307-0.689,1.883c-0.678,1.208-1.836,1.596-3.162,1.204c-1.388-0.411-2.284-1.352-2.931-2.6
		c-0.294-0.567-0.656-1.099-1.157-1.927c-0.541,0.801-0.886,1.346-1.265,1.867c-1.258,1.725-3.058,1.67-3.998-0.206
		c-0.494-0.986-0.849-2.086-1.032-3.175c-0.225-1.333,0.124-2.562,1.521-3.386c0.327,0.264,0.636,0.591,1.011,0.796
		c0.462,0.252,0.98,0.564,1.475,0.564c0.935,0,1.608,0.373,2.278,1.187c0.167-0.442,0.322-0.769,0.416-1.112
		c0.754-2.75,1.897-5.278,4.07-7.228c0.125-0.112,0.241-0.235,0.371-0.343c0.515-0.428,1.03-1.015,1.77-0.6
		c0.776,0.437,0.697,1.214,0.508,1.947c-0.378,1.464-0.852,2.909-1.15,4.389c-0.215,1.068-0.21,2.179-0.304,3.271
		C161.228,230.317,161.34,230.318,161.454,230.319z"/>
	<path fill-rule="evenodd" clip-rule="evenodd" d="M494.872,328.849c-0.41-0.897-0.713-1.483-0.953-2.095
		c-0.797-2.027,0.386-3.627,2.506-3.198c1.462,0.296,2.865,0.927,4.259,1.495c0.604,0.246,0.896,0.835,0.812,1.528
		c-0.086,0.703-0.513,1.187-1.187,1.219c-0.767,0.036-1.028,0.539-1.364,1.056c-0.576,0.884-0.589,0.875-1.871,1.287
		c0.406,0.453,0.751,0.852,1.109,1.237c1.621,1.743,2.944,3.674,3.739,5.938c0.074,0.211,0.138,0.427,0.205,0.641
		c0.267,0.856,0.645,1.756-0.273,2.446c-0.646,0.484-1.45,0.185-2.475-0.849c-1.027-1.036-2.018-2.11-3.06-3.132
		c-0.708-0.694-1.468-1.344-2.767-1.493c0.548,1.217,1.396,2.355-0.09,3.374c-1.498-1.343-3.097-2.58-4.453-4.042
		c-1.698-1.83-0.84-4.337,1.587-4.948c0.646-0.163,1.332-0.167,2.001-0.238C493.256,329.005,493.916,328.943,494.872,328.849z"/>
	<path fill-rule="evenodd" clip-rule="evenodd" d="M239.684,575.86c-3.217,0.854-6.211,1.06-9.251,0.507
		c-0.221-0.041-0.457-0.03-0.666-0.103c-0.699-0.243-1.459-0.512-1.5-1.388c-0.044-0.934,0.614-1.395,1.441-1.605
		c1.358-0.344,2.728-0.639,4.083-0.994c1.186-0.312,2.371-0.653,3.226-1.929c-0.619-0.044-1.095-0.03-1.55-0.12
		c-0.674-0.135-1.134-0.583-1.12-1.277c0.015-0.688,0.646-0.606,1.13-0.733c0.862-0.226,1.686-0.596,2.55-0.805
		c1.021-0.247,2.066-0.538,3.102-0.537c1.482,0.001,2.41,0.986,2.382,2.48c-0.017,0.869-0.304,1.75-0.569,2.594
		c-0.264,0.841-0.655,1.641-1.084,2.688c0.774,0.114,1.351,0.236,1.932,0.28c2.277,0.172,3.049,1.646,1.853,3.568
		c-0.826,1.325-1.96,2.292-3.363,2.969c-0.664,0.32-1.294,0.338-1.917-0.064c-0.646-0.418-0.506-1.037-0.453-1.664
		c0.034-0.404,0.061-0.923-0.152-1.212C239.133,577.666,238.741,576.872,239.684,575.86z"/>
	<path fill-rule="evenodd" clip-rule="evenodd" d="M97.034,392.051c-2.437,1.342-3.058,1.33-4.63-0.087
		c-1.045,1.179-2.167,0.773-3.308,0.108c-3.137-1.829-3.74-5.734-1.249-8.144c1.292-1.248,2.457-1.232,3.874-0.096
		c0.86,0.689,1.833,1.241,2.771,1.831c0.808,0.51,1.476,0.314,1.999-0.681c0.669,0.4,1.259,0.752,1.947,1.164
		c-0.103-0.586-0.261-1.203-0.298-1.827c-0.018-0.29,0.121-0.719,0.335-0.855c0.202-0.129,0.68-0.062,0.888,0.104
		c0.473,0.377,0.969,0.807,1.251,1.325c1.022,1.875,1.405,3.867,1,6.016c-0.232,1.235-0.784,2.103-2.021,2.405
		C98.418,393.604,97.469,393.282,97.034,392.051z M90.795,387.125c-1.206,1.242-0.705,2.532,1.733,3.88
		C91.891,389.576,91.341,388.348,90.795,387.125z"/>
	<path fill-rule="evenodd" clip-rule="evenodd" d="M182.977,549.083c0.091-2.081,0.397-2.557,2.657-3.643
		c-0.541-0.733-0.968-1.515-0.369-2.412c0.634-0.95,1.582-1.206,2.642-1.18c1.491,0.039,2.683,0.761,3.727,1.746
		c1.395,1.317,2.157,2.993,2.601,4.827c0.06,0.248-0.026,0.53-0.048,0.852c-1.502-0.024-1.653-1.678-2.813-2.075
		c0.059,0.514,0.284,1.082,0.123,1.502c-0.141,0.367-0.715,0.57-1.324,1.008c-0.327,1.073-0.534,2.413-0.313,3.842
		c0.497,3.22-1.353,4.774-4.535,3.872c-2.366-0.67-4.187-3.361-3.681-5.726C181.84,550.771,182.518,549.951,182.977,549.083z
		 M186.699,553.207c-0.836-1.117-1.578-2.108-2.419-3.233C184.213,552.488,184.871,553.352,186.699,553.207z"/>
	<path fill-rule="evenodd" clip-rule="evenodd" d="M497.686,392.024c-0.472,1.213-1.295,1.539-2.359,1.345
		c-1.082-0.197-1.954-0.782-2.166-1.867c-0.562-2.876-0.306-5.607,1.899-7.832c0.525-0.531,1.095-1.015,1.909-0.26
		c-0.35,1.736-1.349,3.374-0.785,5.358c0.065-1.362,0.324-2.544,1.324-3.548c2.093,1.397,3.653,0.242,5.168-1.063
		c1.976-1.702,3.628-1.454,4.969,0.768c0.986,1.635,1.019,3.289,0.076,4.951c-0.933,1.643-2.289,2.589-4.239,2.534
		c-0.871-0.024-1.66-0.041-2.522,0.454C499.878,393.483,498.801,392.783,497.686,392.024z M504.017,387.226
		c-0.502,0.84-0.956,1.642-1.453,2.414c-0.293,0.453-0.323,0.85-0.063,1.349C504.714,389.08,504.9,388.593,504.017,387.226z"/>
	<path fill-rule="evenodd" clip-rule="evenodd" d="M404.58,549.492c-0.263-0.046-0.422-0.068-0.577-0.103
		c-1.079-0.23-1.304-0.704-0.728-1.604c0.178-0.28,0.408-0.544,0.664-0.754c0.195-0.16,0.47-0.223,0.57-0.468
		c-1.739,0.096-1.96,2.464-4.069,2.301c0.054-0.601,0.006-1.154,0.162-1.644c0.872-2.73,2.84-4.388,5.471-5.288
		c0.544-0.186,1.239-0.152,1.807-0.002c1.674,0.446,2.096,1.79,1.19,3.529c2.613,1.393,2.969,2.054,2.168,4.029
		c1.515,0.509,1.736,0.794,1.84,2.371c0.174,2.664-1.558,5.104-4.025,5.701c-1.161,0.28-2.248,0.031-3.252-0.502
		c-1.017-0.539-1.316-1.482-1.11-2.586C404.992,552.854,405.017,551.243,404.58,549.492z M407.959,553.271
		c1.786,0.178,2.617-0.861,2.431-3.123C409.595,551.169,408.814,552.171,407.959,553.271z"/>
	<path fill-rule="evenodd" clip-rule="evenodd" d="M391.78,200.296c0.115,0.513,0.222,0.988,0.36,1.61
		c-0.657,0.216-1.259,0.414-2.008,0.66c0.614,0.264,1.157,0.42,1.606,0.718c0.274,0.181,0.584,0.605,0.547,0.876
		c-0.039,0.297-0.425,0.721-0.719,0.777c-0.707,0.133-1.452,0.138-2.177,0.098c-1.983-0.11-3.688-0.937-5.121-2.266
		c-1.155-1.07-1.327-2.669-0.357-3.601c0.485-0.466,1.234-0.657,1.963-1.021c-0.008-1.547,0.012-3.242,2.285-3.534
		c-0.23-1.275,0.518-2.024,1.346-2.694c2.889-2.332,7.351-0.708,8.048,2.915c0.314,1.635-0.097,2.398-1.691,2.936
		C394.295,198.298,392.893,199.057,391.78,200.296z M388.894,194.765c1.331,0.989,2.796,0.237,4.179,0.691
		C392.583,193.934,392.383,193.907,388.894,194.765z"/>
	<path fill-rule="evenodd" clip-rule="evenodd" d="M206.937,194.595c1.544,0.475,2.208,1.833,1.81,3.733
		c0.125,0.102,0.209,0.23,0.292,0.229c0.884-0.008,1.743,0.085,2.043,1.085c0.321,1.071,0.213,2.119-0.534,3.017
		c-1.74,2.092-5.596,2.858-8.011,1.596c-0.083-0.044-0.119-0.179-0.227-0.353c0.313-1.085,1.672-0.638,2.243-1.429
		c-0.62-0.155-1.229-0.307-1.937-0.483c0.106-0.607,0.188-1.083,0.278-1.596c-0.082-0.102-0.165-0.252-0.289-0.353
		c-1.129-0.918-2.262-1.769-3.712-2.221c-1.843-0.575-2.325-1.905-1.597-3.732c1.311-3.292,5.557-4.381,8.223-2.02
		C206.121,192.602,206.365,193.542,206.937,194.595z M205.72,194.788c-2.754-0.986-3.971-0.752-4.296,1.056
		C202.732,194.629,204.369,196.022,205.72,194.788z"/>
	<path fill-rule="evenodd" clip-rule="evenodd" d="M377.634,196.47c-2.138-1.064-3.405-2.553-3.976-4.697
		c-0.24-0.901-0.721-1.778-1.255-2.554c-1.466-2.126,0.157-5.099,1.841-5.909c1.001-0.481,1.841-0.179,2.611,0.582
		c0.639-0.452,1.225-0.867,1.981-1.403c1.014,0.701,2.118,1.356,3.073,2.183c0.34,0.293,0.497,1.027,0.43,1.518
		c-0.188,1.376,0.023,2.637,0.431,3.961c0.78,2.532-0.612,5.23-2.948,6.041c-0.196,0.068-0.431,0.03-0.642,0.042
		c-0.758-1.149-0.083-2.328-0.139-3.498c-0.803,0.107-1.502,0.202-2.208,0.296C376.596,194.262,378.067,195.056,377.634,196.47z
		 M378.797,190.138c-0.268-0.967,0.316-1.927-0.702-2.574c-1.016,0.291-1.071,1.133-1.264,2.095
		C377.469,189.814,378.03,189.952,378.797,190.138z"/>
	<path fill-rule="evenodd" clip-rule="evenodd" d="M215.898,182.442c0.71,0.582,1.183,0.969,1.629,1.334
		c0.159,0,0.288,0.039,0.376-0.005c2.281-1.139,3.345-0.747,4.308,1.586c0.657,1.592,0.929,3.125-0.445,4.535
		c-0.255,0.262-0.397,0.69-0.469,1.065c-0.424,2.217-1.602,3.895-3.628,5.122c-1.115-1.081,0.973-2.076,0.03-3.145
		c-0.491,0-1.085,0-1.89,0c0,0.782,0.041,1.498-0.011,2.208c-0.062,0.849-0.377,1.076-1.22,0.853
		c-0.412-0.109-0.85-0.317-1.152-0.609c-1.525-1.479-2.245-3.23-1.477-5.336c0.417-1.145,0.573-2.289,0.313-3.472
		c-0.205-0.933,0.069-1.662,0.829-2.203C213.999,183.729,214.923,183.111,215.898,182.442z M217.85,189.87
		c-0.15-1.602-0.581-2.406-1.206-2.336c-0.643,0.072-0.871,0.831-0.62,2.11c0.018,0.089,0.141,0.158,0.283,0.307
		C216.779,189.926,217.313,189.898,217.85,189.87z"/>
	<path fill-rule="evenodd" clip-rule="evenodd" d="M505.835,407.051c0.249,2.169-0.527,3.153-2.626,3.206
		c-0.877,0.022-1.829-0.073-2.621-0.41c-0.658-0.28-1.401-0.898-1.629-1.538c-0.381-1.066-1.064-1.821-1.776-2.607
		c-1.036-1.145-1.695-2.452-1.811-4.004c1.347-0.852,1.597,0.692,2.47,0.993c0.35-0.567,0.709-1.152,1.098-1.783
		c-0.577-0.354-1.165-0.683-1.716-1.064c-0.753-0.522-0.816-1.184-0.148-1.794c0.277-0.255,0.65-0.482,1.014-0.555
		c1.844-0.369,3.61-0.237,4.981,1.237c1.013,1.088,2.145,1.983,3.534,2.511c0.797,0.301,1.119,0.874,1.168,1.672
		c0.018,0.28,0.054,0.559,0.087,0.838C508.124,406.025,508.102,406.064,505.835,407.051z M500.547,404.498c0.953,0,1.771,0,2.635,0
		c-0.038-1.3-0.845-1.665-1.819-2.009C501.094,403.151,500.856,403.736,500.547,404.498z"/>
	<path fill-rule="evenodd" clip-rule="evenodd" d="M95.737,400.866c0.471,0.654,0.853,1.186,1.249,1.735
		c0.603-0.573,1.188-1.149,1.802-1.693c0.092-0.082,0.319-0.011,0.725-0.011c-0.035,1.9-0.643,3.532-1.938,4.829
		c-0.77,0.77-1.346,1.601-1.853,2.55c-1.115,2.089-4.205,2.712-6.151,1.361c-0.913-0.633-0.822-1.503-0.735-2.369
		c-0.086-0.124-0.127-0.257-0.212-0.298c-2.042-0.979-1.967-1.02-1.768-3.365c0.128-1.51,0.78-2.297,2.162-2.81
		c0.734-0.271,1.395-0.902,1.934-1.51c1.446-1.626,3.25-2.12,5.313-1.835c0.46,0.063,0.964,0.324,1.304,0.646
		c0.699,0.662,0.606,1.2-0.205,1.755C96.856,400.197,96.323,400.502,95.737,400.866z M93.287,402.356
		c-0.925,0.504-1.939,0.738-1.807,2.038c0.884,0.372,1.707,0.314,2.601-0.044C93.805,403.657,93.583,403.101,93.287,402.356z"/>
	<path fill-rule="evenodd" clip-rule="evenodd" d="M414.559,540.712c0.992,0.457,1.878,0.864,2.75,1.265
		c0.403-0.595,0.768-1.132,1.144-1.685c-0.596-0.383-1.229-0.79-1.955-1.257c1.106-1.243,2.352-1.27,3.646-1.104
		c1.437,0.185,2.867,0.423,4.307,0.572c2.045,0.214,3.814,2.311,3.613,4.347c-0.088,0.89-0.347,1.218-1.77,2.24
		c0.284,2.204,0.101,2.272-2.049,3.308c-1.459,0.703-2.454,0.459-3.623-0.519c-0.635-0.531-1.584-0.785-2.432-0.943
		C415.27,546.394,413.581,543.777,414.559,540.712z M422.689,543.978c-0.139-0.943-0.601-1.618-1.43-2.068
		c-0.477,0.555-0.899,1.05-1.367,1.596C420.78,543.979,421.537,544.808,422.689,543.978z"/>
	<path fill-rule="evenodd" clip-rule="evenodd" d="M177.944,538.394c0.184,1.337-0.984,1.322-1.555,1.873
		c0.269,0.627,0.528,1.23,0.809,1.885c0.519-0.316,0.997-0.599,1.465-0.897c0.491-0.314,0.985-0.575,1.544-0.168
		c0.576,0.418,0.697,1.026,0.515,1.653c-0.542,1.854-1.468,3.398-3.5,3.938c-0.432,0.114-0.908,0.123-1.299,0.313
		c-0.842,0.409-1.745,0.789-2.427,1.398c-0.59,0.527-1.108,0.7-1.8,0.466c-0.582-0.198-1.157-0.421-1.721-0.667
		c-1.006-0.438-1.667-1.166-1.627-2.314c0.024-0.703-0.218-1.138-0.826-1.491c-0.961-0.557-1.156-1.454-0.884-2.478
		c0.604-2.28,2.316-3.475,4.702-3.421c0.82,0.019,1.665-0.145,2.462-0.36C175.212,537.74,176.557,537.815,177.944,538.394z
		 M173.257,541.859c-0.339,0.381-0.693,0.633-0.831,0.971c-0.168,0.417-0.343,0.994-0.18,1.346c0.275,0.593,0.86,0.303,1.312,0.078
		c0.445-0.22,0.87-0.48,1.164-0.646C174.263,543.06,173.814,542.524,173.257,541.859z"/>
	<path fill-rule="evenodd" clip-rule="evenodd" d="M502.582,422.242c-1.953,1.772-3.973,1.777-6.222,1.09
		c-0.021,0.425-0.004,0.747-0.057,1.057c-0.129,0.762-0.657,1.155-1.364,1.303c-1.437,0.299-3.267-0.934-3.302-2.388
		c-0.072-3.028-0.021-6.062,0.036-9.091c0.015-0.788,0.653-1.082,1.279-0.557c0.576,0.484,0.969,1.189,1.614,2.017
		c1.287-0.249,2.762-0.485,4.21-0.83c1.282-0.306,3.396,0.349,4.034,1.445c0.196,0.337,0.244,0.881,0.114,1.241
		c-0.071,0.199-0.648,0.264-1.006,0.297c-0.327,0.031-0.666-0.087-1.001-0.089c-0.678-0.003-1.196,0.242-1.376,0.973
		c-0.17,0.688-0.234,1.283,0.525,1.74C500.904,420.953,501.666,421.581,502.582,422.242z"/>
	<path fill-rule="evenodd" clip-rule="evenodd" d="M358.117,183.801c0.602-2.246,1.594-4.003,4.199-4.716
		c0.081,0.837,0.151,1.479,0.202,2.123c0.035,0.447,0.032,0.897,0.061,1.346c0.042,0.658,0.478,1,1.047,1.169
		c0.625,0.187,1.115-0.095,1.415-0.628c0.273-0.486,0.447-1.026,0.694-1.528c0.163-0.332,0.378-0.637,0.575-0.964
		c1.223,0.913,1.754,2.485,1.229,3.874c-0.271,0.714-0.74,1.375-1.22,1.98c-0.695,0.879-1.483,1.684-2.224,2.528
		c-0.106,0.123-0.166,0.286-0.288,0.503c0.343,0.542,0.754,1.083,1.032,1.686c0.135,0.292,0.159,0.836-0.019,1.016
		c-0.201,0.204-0.687,0.151-1.048,0.158c-0.152,0.003-0.311-0.12-0.46-0.199c-2.281-1.201-4.576-2.379-6.839-3.615
		c-1.53-0.835-1.943-1.877-1.513-3.499C355.353,183.562,356.646,183.018,358.117,183.801z"/>
	<path fill-rule="evenodd" clip-rule="evenodd" d="M169.463,530.576c-0.86,0.081-1.72,0.161-2.819,0.265
		c-0.442,1.24-0.958,2.531-1.36,3.854c-0.5,1.648-1.936,3.034-3.426,3.038c-0.434,0.001-1.025-0.226-1.264-0.553
		c-0.328-0.45,0.032-0.884,0.447-1.276c1.244-1.175,1.175-1.751-0.314-3.012c-1.097,0.503-2.247,1.03-3.378,1.548
		c-1.077-1.771-0.429-3.748,1.818-5.916c-1.295-0.738-1.599-1.217-1.368-2.154c0.269-1.092,1.647-2.13,2.82-1.982
		c0.647,0.081,1.32,0.32,1.884,0.654c2.03,1.201,4.037,2.445,6.011,3.736c0.47,0.307,0.779,0.858,1.162,1.297
		C169.604,530.242,169.534,530.409,169.463,530.576z"/>
	<path fill-rule="evenodd" clip-rule="evenodd" d="M98.288,423.428c-2.148,0.365-4.211,0.897-5.805-1.112
		c0.401-1.08,1.401-1.358,2.176-1.837c0.851-0.527,1.021-1.399,0.289-2.282c-0.399-0.481-0.896-0.584-1.513-0.376
		c-0.611,0.207-1.261,0.303-2.084,0.491c0.054-0.553-0.008-0.903,0.127-1.143c1.121-1.983,2.462-2.581,4.756-2.177
		c1.316,0.233,2.633,0.462,4.026,0.705c0.243-0.453,0.453-0.838,0.655-1.228c0.236-0.454,0.451-0.946,1.106-0.808
		c0.707,0.15,0.766,0.702,0.795,1.295c0.087,1.738,0.212,3.475,0.292,5.214c0.042,0.897,0.055,1.799,0.017,2.696
		c-0.073,1.712-1.222,2.81-2.92,2.847C99.042,425.738,98.555,425.173,98.288,423.428z"/>
	<path fill-rule="evenodd" clip-rule="evenodd" d="M432.509,534.262c0.412,0.599,0.724,1.051,1.035,1.504
		c0.313,0.453,0.807,0.905,0.368,1.493c-0.434,0.58-1.039,0.471-1.684,0.31c-1.529-0.381-2.378-1.414-2.868-2.815
		c-0.446-1.269-0.856-2.55-1.316-3.928c-0.835-0.047-1.657-0.094-2.484-0.141c-0.511-0.89-0.106-1.429,0.572-1.855
		c2.044-1.286,4.06-2.62,6.153-3.82c2.577-1.478,4.458-0.31,4.536,2.813c-0.474,0.208-0.979,0.431-1.659,0.73
		c1.648,0.947,2.487,2.331,2.624,4.105c0.032,0.416,0.024,1.122-0.179,1.211c-0.454,0.202-1.092,0.246-1.565,0.087
		c-0.671-0.228-1.262-0.696-2.228-1.261C433.404,533.188,432.989,533.687,432.509,534.262z"/>
	<path fill-rule="evenodd" clip-rule="evenodd" d="M228.864,180.791c0.159,0.59,0.286,1.176,0.476,1.74
		c0.276,0.82,0.937,1.331,1.596,1.218c0.841-0.145,1.231-0.717,1.284-1.538c0.053-0.824,0.092-1.648,0.143-2.577
		c2.902,0.207,3.674,2.172,4.094,4.437c1.402-0.811,1.739-0.784,2.652,0.152c0.899,0.921,1.135,2.075,0.488,3.052
		c-0.327,0.492-0.813,0.945-1.329,1.234c-2.496,1.395-5.024,2.731-7.546,4.077c-0.18,0.097-0.407,0.107-0.647,0.166
		c-0.931-1.383,0.419-2.186,0.754-3.381c-0.632-0.737-1.333-1.521-1.995-2.338c-0.527-0.65-1.109-1.287-1.487-2.021
		C226.526,183.415,227.219,181.428,228.864,180.791z"/>
	<path fill-rule="evenodd" clip-rule="evenodd" d="M498.368,349.211c1.557,1.861,3.519,3.062,5.85,3.737
		c0.771,0.225,1.462,0.723,2.273,1.139c-0.46,0.994-1.244,1.248-1.957,1.398c-0.888,0.187-1.507,0.609-2.077,1.287
		c-1.244,1.482-2.492,1.694-4.16,0.754c-0.759-0.429-1.47-0.944-2.419-1.19c1.095,1.188,2.189,2.374,3.355,3.639
		c-1.298,0.897-2.505,0.814-3.628,0.224c-1.85-0.975-2.937-2.585-3.268-4.643c-0.164-1.021-0.016-1.959,0.925-2.713
		c0.536-0.43,0.846-1.164,1.199-1.795c1.075-1.914,1.822-2.262,3.961-1.778L498.368,349.211z"/>
	<path fill-rule="evenodd" clip-rule="evenodd" d="M372.446,567.513c-0.167-0.208-0.325-0.423-0.501-0.622
		c-0.899-1.018-1.061-1.746-0.41-2.894c0.633-1.117,1.315-2.177,1.667-3.452c0.271-0.979,1.245-1.456,2.18-1.673
		c1.495-0.345,3.014-0.263,4.468,0.274c0.987,0.364,1.737,1.055,2.146,2.019c0.15,0.354,0.199,1.04,0.002,1.19
		c-0.328,0.249-0.919,0.319-1.351,0.229c-0.754-0.157-1.459-0.54-2.209-0.736c-0.397-0.104-0.845-0.019-1.326,0.175
		c0.533,0.256,1.08,0.486,1.597,0.771c0.583,0.323,1.209,0.621,1.695,1.063c1.099,0.998,1.245,2.29,0.523,3.649
		c-0.157,0.294-0.331,0.578-0.502,0.877c0.374,1.16,1.099,2.344-0.416,3.474c-0.479-0.395-0.997-0.777-1.467-1.213
		c-1.76-1.632-3.73-2.846-6.155-3.19L372.446,567.513z"/>
	<path fill-rule="evenodd" clip-rule="evenodd" d="M222.332,567.482c-2.491,0.218-4.397,1.557-6.155,3.192
		c-0.514,0.479-1.065,0.916-1.601,1.374c-0.792-0.623-1.044-1.213-0.815-2.028c0.33-1.171,0.254-2.297-0.266-3.443
		c-0.507-1.116-0.043-2.176,1.159-2.991c0.461-0.313,0.983-0.539,1.481-0.796c0.486-0.25,0.978-0.489,1.797-0.897
		c-1.139-0.263-1.906-0.2-2.666,0.137c-0.308,0.137-0.615,0.275-0.916,0.427c-0.552,0.277-1.137,0.699-1.641,0.001
		c-0.476-0.659-0.202-1.303,0.291-1.829c1.352-1.443,3.056-2.081,5.003-1.944c0.766,0.054,1.554,0.276,2.255,0.594
		c0.481,0.218,1.086,0.674,1.185,1.122c0.298,1.361,1.133,2.425,1.689,3.636c0.614,1.337,0.1,2.504-0.863,3.508L222.332,567.482z"/>
	<path fill-rule="evenodd" clip-rule="evenodd" d="M95.406,360.002c0.866-1.526,2.717-2.008,3.388-3.932
		c-0.716,0.399-1.209,0.707-1.731,0.956c-0.752,0.36-1.5,0.767-2.295,0.989c-0.93,0.262-1.834,0.02-2.315-0.887
		c-0.526-0.991-1.314-1.481-2.374-1.657c-0.217-0.036-0.479-0.098-0.617-0.244c-0.29-0.307-0.664-0.659-0.708-1.028
		c-0.031-0.262,0.403-0.599,0.666-0.866c0.105-0.107,0.308-0.122,0.469-0.168c2.364-0.664,4.422-1.824,6.191-3.56
		c1.03-1.011,2.08-0.927,3.112,0.11c0.466,0.468,0.788,1.08,1.174,1.627c0.384,0.545,0.691,1.175,1.172,1.614
		c0.608,0.555,0.821,1.226,0.799,1.951c-0.073,2.382-1.214,4.17-3.279,5.312C97.896,360.861,96.847,360.751,95.406,360.002z"/>
	<path fill-rule="evenodd" clip-rule="evenodd" d="M414.832,213.471c0.451,1.545,0.04,3.306,1.493,4.823
		c-0.098-1.094-0.203-1.862-0.229-2.632c-0.084-2.475,0.627-3.375,3.078-3.716c0.735-0.102,1.237-0.329,1.653-0.936
		c0.207-0.302,0.575-0.545,0.923-0.689c0.777-0.323,1.333,0.028,1.381,0.883c0.027,0.495-0.063,1.005-0.16,1.497
		c-0.367,1.837-0.404,3.659,0.031,5.5c0.553,2.342-0.653,3.675-3.049,3.537c-0.821-0.047-1.667,0.014-2.476,0.163
		c-1.085,0.199-1.993-0.092-2.835-0.726c-1.891-1.423-2.65-4.549-1.665-6.713C413.315,213.723,413.775,213.269,414.832,213.471z"/>
	<path fill-rule="evenodd" clip-rule="evenodd" d="M178.45,218.083c1.158-1.51,1.074-3.19,1.812-4.573
		c1.397,0.107,1.736,1.138,1.982,2.171c0.407,1.705-1.322,5.153-2.9,5.881c-0.304,0.14-0.634,0.334-0.947,0.326
		c-1.602-0.046-3.219-0.033-4.796-0.27c-1.52-0.228-2.313-1.467-1.954-2.97c0.563-2.365,0.354-4.686-0.126-7.012
		c-0.118-0.57-0.323-1.242,0.342-1.449c0.434-0.134,1.227,0.027,1.487,0.353c0.813,1.018,1.77,1.372,3.044,1.434
		c1.169,0.057,1.901,0.97,2.033,2.331C178.539,215.452,178.45,216.618,178.45,218.083z"/>
	<path fill-rule="evenodd" clip-rule="evenodd" d="M191.57,200.449c1.31,1.393-0.015,3.295,1.237,4.562
		c0.878,0.094,1.275-0.544,1.711-1.124c0.471-0.626,0.885-1.308,1.429-1.862c0.532-0.543,1.009-0.42,1.313,0.257
		c0.157,0.349,0.321,0.772,0.264,1.126c-0.268,1.66-0.573,3.316-0.945,4.956c-0.166,0.734-0.622,1.303-1.461,1.455
		c-0.958,0.174-1.518,0.858-2.058,1.612c-0.52,0.726-1.1,1.428-1.754,2.031c-0.757,0.697-1.687,1.098-2.761,1.055
		c-1.706-0.068-2.567-1.661-1.658-3.109c0.174-0.278,0.405-0.574,0.684-0.725c1.493-0.811,1.786-2.113,1.733-3.678
		c-0.04-1.17,0.075-2.361,0.265-3.52C189.771,202.256,190.261,201.135,191.57,200.449z"/>
	<path fill-rule="evenodd" clip-rule="evenodd" d="M504.528,376.604c-1.397-0.634-2.795-1.269-4.137-1.877
		c-0.865,0.697-0.597,1.399-0.323,2.084c0.29,0.728,0.691,1.421,0.9,2.169c0.251,0.895-0.19,1.302-1.086,1.065
		c-0.424-0.112-0.865-0.293-1.207-0.559c-1.02-0.79-2.014-1.615-2.979-2.471c-0.957-0.847-1.396-1.925-0.985-3.177
		c0.201-0.614,0.026-1.042-0.22-1.573c-0.422-0.909-0.858-1.854-1.013-2.829c-0.135-0.849-0.002-1.787,0.221-2.632
		c0.242-0.923,1.19-1.414,2.1-1.316c1.047,0.111,1.893,0.795,1.848,1.824c-0.098,2.257,1.221,3.36,3.042,4.146
		c1.658,0.715,2.946,1.835,3.753,3.462c0.208,0.419,0.313,0.89,0.466,1.336C504.781,376.373,504.654,376.489,504.528,376.604z"/>
	<path fill-rule="evenodd" clip-rule="evenodd" d="M94.933,374.935c-1.812-0.414-2.844,1.144-4.482,1.146
		c-0.018-0.391-0.171-0.82-0.024-1.079c0.437-0.77,0.926-1.533,1.521-2.184c0.443-0.483,1.036-0.905,1.645-1.149
		c2.027-0.812,3.34-2.06,3.516-4.401c0.086-1.153,0.938-1.741,1.908-1.789c1.006-0.049,1.817,0.608,2.2,1.725
		c0.475,1.385,0.091,2.679-0.462,3.915c-0.548,1.227-1.269,2.359-0.7,3.815c0.123,0.313-0.156,0.882-0.402,1.225
		c-1.098,1.531-2.532,2.694-4.197,3.566c-0.507,0.267-1.167,0.501-1.542-0.012c-0.229-0.313-0.148-0.963-0.016-1.404
		c0.174-0.582,0.606-1.085,0.793-1.665C94.862,376.109,94.857,375.519,94.933,374.935z"/>
	<path fill-rule="evenodd" clip-rule="evenodd" d="M395.328,555.678c0.781,2.012,2.683,2.129,3.789,3.313
		c-1.14,1.176-2.455,0.835-3.681,0.64c-0.641-0.103-1.243-0.491-1.838-0.8c-0.697-0.361-1.364-0.778-2.048-1.165
		c-1.143-0.648-2.26-0.834-3.505-0.141c-0.475,0.264-1.216,0.297-1.756,0.147c-1.505-0.418-1.944-1.964-0.958-3.19
		c0.934-1.16,2.194-1.742,3.672-1.772c1.325-0.025,2.529-0.195,3.528-1.241c0.577-0.604,1.454-0.571,2.23-0.279
		c1.469,0.554,2.919,1.155,4.379,1.731c0.569,0.224,1.119,0.635,0.892,1.216c-0.153,0.392-0.802,0.675-1.285,0.827
		c-0.465,0.147-1.017-0.004-1.504,0.099C396.623,555.192,396.028,555.446,395.328,555.678z"/>
	<path fill-rule="evenodd" clip-rule="evenodd" d="M499.43,370.033c0.599-2.023,2.728-1.787,4.06-2.9
		c-0.497-0.456-0.941-0.858-1.378-1.268c-0.633-0.596-1.163-1.25-0.897-2.198c0.284-1.017,1.121-1.325,2.039-1.492
		c2.623-0.477,6.03,1.654,6.715,4.196c0.473,1.752-0.379,3.481-2.114,4.005c-0.836,0.253-1.772,0.366-2.639,0.284
		c-1.663-0.156-3.299-0.602-4.995-0.325C499.996,370.372,499.73,370.155,499.43,370.033z"/>
	<path fill-rule="evenodd" clip-rule="evenodd" d="M91.303,367.217c1.425,0.706,2.791,1.382,4.383,2.17
		c-0.467,0.353-0.685,0.653-0.937,0.685c-1.946,0.242-3.895,0.473-5.849,0.616c-0.651,0.049-1.35-0.078-1.979-0.275
		c-1.746-0.546-2.628-2.212-2.192-3.989c0.682-2.778,4.418-4.921,7.172-4.112c1.607,0.472,2.074,1.989,0.981,3.258
		C92.415,366.111,91.891,366.606,91.303,367.217z"/>
	<path fill-rule="evenodd" clip-rule="evenodd" d="M189.091,207.71c-1.147,0.856-1.801,0.042-2.483-0.295
		c-0.728-0.359-1.365-0.9-2.169-1.45c-0.231,0.75-0.402,1.326-0.586,1.897c-0.634,1.972-2.321,2.367-3.65,0.748
		c-0.577-0.702-0.928-1.658-1.165-2.556c-0.403-1.521-0.127-3.032,0.645-4.392c1.393-2.453,4.26-2.692,5.951-0.478
		c0.603,0.79,1.042,1.725,1.443,2.643C187.649,205.134,187.863,206.603,189.091,207.71z"/>
	<path fill-rule="evenodd" clip-rule="evenodd" d="M390.232,562.765c0.58-1.4-0.544-2.826,0.324-4.302
		c0.441,0.335,0.84,0.541,1.108,0.857c1.053,1.238,2.129,2.466,3.073,3.784c1.052,1.468,1.062,3.217,0.232,4.421
		c-0.771,1.119-2.716,1.906-4.366,1.394c-1.552-0.482-2.865-1.252-3.904-2.495c-0.602-0.722-0.888-1.555-0.837-2.492
		c0.071-1.299,0.851-1.935,2.144-1.704C388.763,562.363,389.502,562.586,390.232,562.765z"/>
	<path fill-rule="evenodd" clip-rule="evenodd" d="M372.388,567.454c0.957,0.841,1.914,1.682,2.871,2.521
		c0.859,0.754,1.584,1.615,1.754,2.776c0.056,0.382-0.065,0.953-0.328,1.17c-0.248,0.206-0.848,0.196-1.188,0.046
		c-2.091-0.932-4.166-1.901-6.218-2.915c-1.168-0.577-1.536-1.708-1.033-2.816c0.489-1.076,1.586-1.526,2.786-1.148
		c0.47,0.148,0.944,0.285,1.415,0.426C372.446,567.513,372.388,567.454,372.388,567.454z"/>
	<path fill-rule="evenodd" clip-rule="evenodd" d="M222.27,567.543c0.466-0.167,0.931-0.34,1.399-0.502
		c1.101-0.38,2.154,0.037,2.703,1.066c0.511,0.958,0.301,2.004-0.568,2.711c-0.215,0.175-0.465,0.316-0.719,0.429
		c-2.046,0.911-4.087,1.833-6.15,2.707c-1.039,0.439-1.515,0.07-1.292-1.029c0.118-0.583,0.36-1.227,0.752-1.652
		c0.981-1.063,2.08-2.018,3.131-3.017c0.269-0.256,0.536-0.514,0.805-0.772C222.332,567.482,222.27,567.543,222.27,567.543z"/>
	<path fill-rule="evenodd" clip-rule="evenodd" d="M498.423,349.27c-0.415-0.417-0.854-0.813-1.242-1.255
		c-0.796-0.91-0.846-1.874-0.181-2.744c0.714-0.935,1.853-1.315,2.812-0.652c2.248,1.556,4.403,3.246,6.589,4.892
		c0.064,0.049,0.045,0.209,0.086,0.442c-0.935,0.714-2.025,1.021-3.201,0.729c-1.241-0.309-2.444-0.767-3.668-1.147
		c-0.411-0.127-0.834-0.218-1.25-0.323C498.368,349.211,498.423,349.27,498.423,349.27z"/>
	<path fill-rule="evenodd" clip-rule="evenodd" d="M170.955,218.874c0,0.503,0.037,1.01-0.006,1.51
		c-0.108,1.258-1.03,2.11-2.19,2.066c-1.151-0.043-2.174-0.975-2.146-2.156c0.034-1.394,0.232-2.784,0.377-4.174
		c0.087-0.834,0.159-1.676,0.338-2.492c0.098-0.445,0.31-1.076,0.642-1.214c0.603-0.252,1.151,0.142,1.528,0.709
		c0.855,1.289,1.297,2.718,1.448,4.24C170.996,217.862,170.954,218.37,170.955,218.874z"/>
	<path fill-rule="evenodd" clip-rule="evenodd" d="M427.325,212.316c0.045,0.401,0.097,0.78,0.129,1.161
		c0.16,1.894,0.333,3.788,0.464,5.684c0.042,0.603,0.075,1.24-0.074,1.813c-0.26,0.997-1.208,1.565-2.18,1.46
		c-1.039-0.112-1.823-0.77-1.929-1.783c-0.262-2.496-0.067-4.929,1.217-7.172C425.467,212.58,426.131,212.009,427.325,212.316z"/>
	<path fill-rule="evenodd" clip-rule="evenodd" d="M88.314,349.36c2.198-1.598,4.364-3.257,6.625-4.772
		c0.919-0.616,2.252-0.135,2.825,0.752c0.633,0.98,0.404,2.193-0.616,2.953c-1.888,1.403-3.994,2.254-6.364,2.374
		C89.417,350.736,89.05,350.542,88.314,349.36z"/>
	<path fill-rule="evenodd" clip-rule="evenodd" d="M163.771,446.484c-2.364,1.029-4.106,0.336-5.979-1.278
		c-7.663-6.604-15.474-13.038-23.216-19.552c-0.727-0.61-1.423-1.285-2.011-2.027c-0.771-0.972-0.676-1.832,0.238-2.673
		c0.575-0.528,1.218-1.002,1.89-1.401c6.179-3.675,12.369-7.332,18.562-10.982c0.529-0.312,1.091-0.586,1.668-0.792
		c1.661-0.592,2.65-0.162,3.052,1.551c0.409,1.743,0.595,3.54,0.834,5.321c1.128,8.405,2.202,16.819,3.39,25.217
		c0.247,1.739,0.897,3.421,1.362,5.13c0.132-0.024,0.265-0.048,0.397-0.072c-0.165-1.807-0.314-3.614-0.496-5.42
		c-0.944-9.392-1.9-18.783-2.835-28.177c-0.078-0.779-0.091-1.578-0.015-2.356c0.119-1.213,0.686-1.667,1.813-1.323
		c3.18,0.97,6.218,2.278,8.98,4.161c1.018,0.694,1.463,1.709,1.332,2.915c-0.134,1.225-0.248,2.474-0.581,3.652
		c-2.407,8.538-4.857,17.063-7.324,25.584C164.574,444.851,164.113,445.682,163.771,446.484z"/>
	<path fill-rule="evenodd" clip-rule="evenodd" d="M422.553,418.538c1.135-0.379,1.903-0.006,2.709,0.655
		c1.456,1.197,2.332,2.639,2.678,4.505c0.897,4.844,1.883,9.672,2.822,14.508c0.063,0.317,0.041,0.649,0.063,1.037
		c-0.848-0.008-0.879-0.666-1.071-1.124c-1.536-3.666-3.051-7.343-4.578-11.014c-0.753-1.809-1.533-3.607-2.275-5.421
		C422.498,420.703,422.096,419.706,422.553,418.538z"/>
	<path fill-rule="evenodd" clip-rule="evenodd" d="M422.583,416.423c6.018-4.271,11.911-8.239,17.909-12.053
		c0.107,0.122,0.214,0.244,0.321,0.366c-0.294,0.35-0.558,0.731-0.886,1.046c-3.195,3.064-6.391,6.132-9.609,9.173
		c-1.761,1.664-3.797,2.581-6.281,2.016C423.631,416.878,423.249,416.679,422.583,416.423z"/>
	<path fill-rule="evenodd" clip-rule="evenodd" d="M217.413,252.809c-0.18,0.635-0.355,1.464-0.647,2.249
		c-2.327,6.267-4.662,12.529-7.024,18.782c-0.879,2.328-1.603,2.454-3.209,0.592c-3.561-4.129-7.102-8.276-10.649-12.418
		c-1.5-1.751-2.995-3.504-4.487-5.262c-0.291-0.342-0.591-0.684-0.823-1.064c-0.539-0.886-0.534-1.535,0.298-2.057
		c3.472-2.174,6.948-4.351,10.529-6.337c1.419-0.786,3.077-0.774,4.74-0.249c2.941,0.93,5.948,1.648,8.906,2.525
		C216.72,250.065,217.466,251.117,217.413,252.809z"/>
	<path fill-rule="evenodd" clip-rule="evenodd" d="M210.448,274.652c0.941-2.45,1.874-4.903,2.825-7.35
		c1.648-4.234,3.387-8.435,4.935-12.705c1.022-2.818,2.843-4.636,5.682-5.488c0.644-0.193,1.277-0.426,1.925-0.602
		c1.336-0.362,2.206-0.035,2.815,1.14c1.379,2.662,1.427,5.273-0.457,7.747c-0.44,0.578-0.921,1.134-1.435,1.649
		c-4.911,4.936-9.83,9.863-14.754,14.785c-0.387,0.387-0.83,0.719-1.247,1.076C210.642,274.821,210.545,274.736,210.448,274.652z"/>
	<path fill-rule="evenodd" clip-rule="evenodd" d="M226.611,246.788c-0.87,0.373-1.442,0.708-2.06,0.867
		c-1.626,0.42-3.265,0.8-4.914,1.119c-0.526,0.102-1.123,0.056-1.646-0.081c-3.901-1.024-7.801-2.06-11.684-3.153
		c-2-0.563-2.573-1.431-2.232-3.49c0.357-2.155,0.826-4.296,1.354-6.416c0.413-1.657,1.131-1.919,2.537-1.028
		c5.686,3.603,11.361,7.22,17.03,10.848C225.494,245.771,225.917,246.208,226.611,246.788z"/>
	<path fill-rule="evenodd" clip-rule="evenodd" d="M203.766,235.602c-0.324,2.893-0.751,5.766-2.197,8.373
		c-0.775,1.399-1.878,2.514-3.233,3.37c-2.61,1.646-5.223,3.29-7.837,4.931c-1.243,0.78-2.598,0.919-4.33,0.703
		c0.585-0.829,0.968-1.578,1.535-2.144c4.969-4.958,9.968-9.884,14.966-14.813c0.226-0.223,0.514-0.383,0.773-0.572
		C203.55,235.5,203.658,235.551,203.766,235.602z"/>
	<path fill-rule="evenodd" clip-rule="evenodd" d="M203.279,272.844c-0.355-0.205-0.736-0.377-1.063-0.622
		c-3.822-2.858-7.63-5.735-11.453-8.594c-2.848-2.13-4.197-5.177-5.273-8.452c0.689-0.699,1.448-0.611,2.151-0.198
		c0.571,0.335,1.115,0.77,1.556,1.263c4.601,5.151,9.182,10.323,13.757,15.498c0.226,0.256,0.357,0.595,0.533,0.895
		C203.417,272.703,203.348,272.773,203.279,272.844z"/>
	<path fill-rule="evenodd" clip-rule="evenodd" d="M393.687,273.197c-0.396-0.434-0.781-0.879-1.192-1.299
		c-1.571-1.609-3.162-3.2-4.725-4.818c-1.48-1.534-1.905-3.265-0.886-5.235c0.413-0.798,0.77-1.628,1.21-2.409
		c2.985-5.285,5.984-10.563,8.983-15.84c0.277-0.488,0.562-0.976,0.885-1.434c1.21-1.718,1.984-1.765,3.477-0.219
		c0.313,0.323,0.604,0.668,0.882,1.021c2.053,2.605,4.063,5.247,6.161,7.816c1.81,2.217,2.047,4.554,0.738,7.043
		c-2.772,5.272-5.556,10.539-8.389,15.779c-1.114,2.061-1.651,2.223-3.967,1.713c-0.438-0.097-0.933-0.295-1.323-0.181
		c-1.315,0.388-2.431-0.161-3.572-0.605c-6.049-2.352-11.855-5.156-16.946-9.253c-1.523-1.227-2.95-2.572-4.67-4.082
		c0.593,0,0.849-0.061,1.062,0.009c2.771,0.911,5.547,1.815,8.304,2.772c2.898,1.007,5.475,2.58,7.821,4.557
		c1.961,1.65,3.969,3.246,5.955,4.865C393.559,273.33,393.623,273.264,393.687,273.197z"/>
	<path fill-rule="evenodd" clip-rule="evenodd" d="M367.39,256.244c0.126-0.29,0.309-0.885,0.624-1.398
		c3.205-5.213,6.43-10.416,9.655-15.617c1.001-1.614,2.495-2.489,4.363-2.383c2.739,0.155,5.471,0.478,8.202,0.775
		c1.225,0.133,2.44,0.356,3.654,0.577c0.715,0.13,1.438,0.274,2.118,0.52c1.342,0.485,1.563,1.006,1.047,2.295
		c-0.207,0.519-0.458,1.027-0.739,1.511c-3.242,5.584-6.496,11.161-9.739,16.744c-0.866,1.492-2.131,2.59-3.465,3.633
		c-0.6,0.469-1.176,0.487-1.88,0.237c-3.909-1.393-7.838-2.731-11.748-4.12C367.857,258.439,367.322,257.76,367.39,256.244z"/>
	<path fill-rule="evenodd" clip-rule="evenodd" d="M295.15,534.021c-2.804,0.103-5.609,0.21-8.413,0.306
		c-0.392,0.013-0.794,0.029-1.174-0.044c-1.036-0.197-1.523-0.961-1.231-1.985c0.136-0.476,0.401-0.923,0.658-1.354
		c3.276-5.493,6.555-10.985,9.851-16.467c1.238-2.06,1.949-2.056,3.097,0.016c2.853,5.154,5.698,10.313,8.519,15.483
		c1.336,2.453,0.623,3.648-2.217,3.769c-3.027,0.129-6.057,0.224-9.086,0.333C295.151,534.059,295.151,534.04,295.15,534.021z"/>
	<path fill-rule="evenodd" clip-rule="evenodd" d="M295.404,535.254c2.916-0.097,5.832-0.201,8.748-0.283
		c0.887-0.025,1.877-0.192,2.396,0.793c0.512,0.97-0.141,1.707-0.656,2.441c-2.289,3.26-4.58,6.519-6.872,9.777
		c-0.193,0.275-0.381,0.557-0.597,0.814c-1.263,1.513-2.564,1.582-4.026,0.211c-0.327-0.306-0.629-0.641-0.917-0.984
		c-2.805-3.359-5.611-6.719-8.401-10.091c-0.445-0.538-1.157-1.063-0.748-1.882c0.365-0.727,1.158-0.55,1.816-0.57
		c3.085-0.097,6.17-0.183,9.255-0.273C295.403,535.223,295.403,535.238,295.404,535.254z"/>
	<path fill-rule="evenodd" clip-rule="evenodd" d="M298.322,512.11c0.895,0.068,1.506,0.022,2.064,0.173
		c4.871,1.303,9.739,2.625,14.598,3.979c1.906,0.531,2.378,1.644,1.559,3.439c-0.115,0.255-0.255,0.499-0.387,0.747
		c-0.684,1.289-1.365,2.579-2.057,3.864c-0.85,1.582-1.695,3.166-2.569,4.734c-0.481,0.863-0.815,1.989-2.05,1.985
		c-1.147-0.003-1.496-1.06-1.959-1.872c-1.971-3.463-3.922-6.937-5.875-10.408c-0.881-1.565-1.77-3.127-2.613-4.712
		C298.762,513.529,298.625,512.946,298.322,512.11z"/>
	<path fill-rule="evenodd" clip-rule="evenodd" d="M294.698,512.114c-0.233,0.564-0.36,1.024-0.596,1.417
		c-3.44,5.73-6.894,11.452-10.35,17.173c-0.172,0.286-0.355,0.586-0.602,0.803c-0.499,0.439-1.074,0.322-1.39-0.275
		c-0.155-0.293-0.247-0.628-0.319-0.955c-0.758-3.454-1.531-6.906-2.251-10.368c-0.459-2.209,0.456-3.999,2.602-4.635
		c3.977-1.179,8.005-2.186,12.015-3.25C294,511.973,294.227,512.062,294.698,512.114z"/>
	<path fill-rule="evenodd" clip-rule="evenodd" d="M299.381,549.473c0.251-0.46,0.453-0.956,0.762-1.375
		c2.357-3.217,4.716-6.434,7.114-9.621c1.693-2.25,3.23-2.537,5.669-1.097c0.77,0.454,1.521,0.971,2.189,1.562
		c0.938,0.831,0.93,1.773,0.008,2.603c-0.452,0.407-0.996,0.728-1.537,1.02c-4.097,2.221-8.199,4.432-12.313,6.621
		c-0.508,0.27-1.094,0.392-1.643,0.582C299.547,549.669,299.465,549.571,299.381,549.473z"/>
	<path fill-rule="evenodd" clip-rule="evenodd" d="M317.822,520.029c0.127,0.391,0.25,0.594,0.248,0.795
		c-0.033,2.744-0.092,5.488-0.129,8.231c-0.025,1.962-0.025,3.925-0.039,5.888c-0.004,0.561,0.025,1.125-0.031,1.681
		c-0.163,1.599-1.273,2.146-2.57,1.226c-0.864-0.615-1.695-1.302-2.438-2.058c-1.3-1.319-1.721-2.932-0.909-4.632
		c1.716-3.589,3.527-7.131,5.311-10.688C317.328,520.344,317.511,520.271,317.822,520.029z"/>
	<path fill-rule="evenodd" clip-rule="evenodd" d="M313.939,514.854c-0.358-0.052-0.684-0.063-0.987-0.147
		c-4.263-1.178-8.524-2.358-12.782-3.552c-1.487-0.417-1.95-0.854-1.933-1.738c0.017-0.867,0.8-1.737,2.015-1.947
		c0.676-0.118,1.537-0.119,2.094,0.206c3.867,2.256,7.676,4.611,11.501,6.939C313.885,514.639,313.889,514.717,313.939,514.854z"/>
	<path fill-rule="evenodd" clip-rule="evenodd" d="M292.633,548.927c-0.177-0.081-0.369-0.14-0.529-0.247
		c-3.44-2.32-6.877-4.647-10.314-6.974c-1.18-0.799-1.77-1.858-1.421-3.309c0.375-1.565,1.76-2.009,2.882-0.87
		c0.903,0.918,1.704,1.938,2.544,2.916c2.121,2.468,4.242,4.936,6.356,7.41c0.235,0.276,0.424,0.593,0.635,0.891
		C292.734,548.805,292.684,548.866,292.633,548.927z"/>
	<path fill-rule="evenodd" clip-rule="evenodd" d="M278.74,522.152c0.295,1.468,0.599,2.933,0.883,4.403
		c0.395,2.038,0.854,4.07,1.125,6.125c0.127,0.967-0.034,2-0.231,2.97c-0.096,0.472-0.574,0.867-1.106,1.618
		c-0.34-0.836-0.69-1.311-0.705-1.796c-0.138-4.433-0.216-8.867-0.313-13.302C278.509,522.165,278.625,522.159,278.74,522.152z"/>
	<path fill-rule="evenodd" clip-rule="evenodd" d="M297.577,507.683c-0.23,0.548-0.271,0.939-0.485,1.101
		c-0.887,0.664-1.748,1.485-2.762,1.834c-2.794,0.962-5.661,1.717-8.501,2.545c-0.149,0.043-0.322,0.006-0.575-0.22
		c1.988-0.928,3.956-1.906,5.972-2.769C293.232,509.314,295.083,508.013,297.577,507.683z"/>
	<path fill-rule="evenodd" clip-rule="evenodd" d="M310.248,533.737c0.045,0.805-0.572,1.474-1.176,1.386
		c-0.359-0.052-0.822-0.346-0.971-0.658c-0.225-0.471,0.424-1.084,1.16-1.074C309.625,533.395,309.985,533.639,310.248,533.737z"/>
	<path fill-rule="evenodd" clip-rule="evenodd" d="M282.563,533.87c0.212,0.416,0.427,0.677,0.447,0.95
		c0.009,0.124-0.367,0.277-0.569,0.418c-0.142-0.215-0.392-0.428-0.396-0.646C282.043,534.401,282.311,534.202,282.563,533.87z"/>
	<path fill-rule="evenodd" clip-rule="evenodd" d="M297.474,125.784c2.96,5.151,5.738,9.988,8.628,15.016
		c-5.824,0-11.392,0-17.237,0C291.724,135.813,294.5,130.969,297.474,125.784z"/>
	<path fill-rule="evenodd" clip-rule="evenodd" d="M305.795,142.844c-2.858,3.646-5.515,7.036-8.315,10.609
		c-2.78-3.548-5.446-6.952-8.312-10.609C294.836,142.844,300.127,142.844,305.795,142.844z"/>
	<path fill-rule="evenodd" clip-rule="evenodd" d="M312.643,127.084c-1.695,4.257-3.303,8.298-5.034,12.646
		c-2.844-4.95-5.517-9.601-8.382-14.587C303.877,125.816,308.159,126.436,312.643,127.084z"/>
	<path fill-rule="evenodd" clip-rule="evenodd" d="M287.345,139.733c-1.737-4.365-3.328-8.361-5.004-12.575
		c4.394-0.811,8.722-1.335,13.368-1.987C292.886,130.087,290.221,134.727,287.345,139.733z"/>
	<path fill-rule="evenodd" clip-rule="evenodd" d="M312.926,143.719c-1.412-0.798-2.647-1.497-4.023-2.275
		c1.284-3.217,2.527-6.333,3.771-9.448c0.084,0.026,0.168,0.052,0.252,0.079C312.926,135.875,312.926,139.675,312.926,143.719z"/>
	<path fill-rule="evenodd" clip-rule="evenodd" d="M282.869,145.418c1.417-0.825,2.661-1.549,4.097-2.384
		c2.114,2.7,4.197,5.359,6.279,8.019c-0.07,0.085-0.14,0.17-0.21,0.255C289.723,149.389,286.412,147.47,282.869,145.418z"/>
	<path fill-rule="evenodd" clip-rule="evenodd" d="M286.381,124.296c3.265-1.895,6.53-3.789,10.012-5.809c0,1.637,0,3.042,0,4.669
		c-3.248,0.472-6.574,0.955-9.9,1.438C286.456,124.495,286.418,124.396,286.381,124.296z"/>
	<path fill-rule="evenodd" clip-rule="evenodd" d="M301.899,150.809c2-2.554,4.001-5.108,6.093-7.779
		c1.355,0.798,2.631,1.549,4.079,2.401c-3.438,1.988-6.665,3.855-9.893,5.722C302.086,151.038,301.992,150.923,301.899,150.809z"/>
	<path fill-rule="evenodd" clip-rule="evenodd" d="M308.529,124.614c-3.314-0.485-6.627-0.969-9.998-1.462c0-1.547,0-2.964,0-4.679
		c3.526,2.045,6.828,3.959,10.129,5.875C308.617,124.437,308.572,124.525,308.529,124.614z"/>
	<path fill-rule="evenodd" clip-rule="evenodd" d="M286.049,141.43c-1.36,0.783-2.562,1.475-3.791,2.184
		c-0.357-1.38-0.42-9.567-0.049-11.789C283.553,135.188,284.768,138.227,286.049,141.43z"/>
	<path fill-rule="evenodd" clip-rule="evenodd" d="M507.687,490.143c2.86,4.986,5.64,9.829,8.522,14.855
		c-5.843,0-11.386,0-16.929,0.001C499.485,503.868,506.057,492.188,507.687,490.143z"/>
	<path fill-rule="evenodd" clip-rule="evenodd" d="M499.227,506.979c5.687,0,10.979,0,16.29,0
		c-0.429,1.207-4.888,7.101-7.993,10.563C504.821,514.102,502.141,510.689,499.227,506.979z"/>
	<path fill-rule="evenodd" clip-rule="evenodd" d="M497.378,503.737c-1.675-4.205-3.264-8.195-4.94-12.402
		c4.396-0.858,8.701-1.3,12.994-1.982C505.189,490.551,499.428,500.856,497.378,503.737z"/>
	<path fill-rule="evenodd" clip-rule="evenodd" d="M509.309,489.296c4.709,0.685,8.962,1.304,13.427,1.952
		c-1.681,4.231-3.285,8.27-5.022,12.644C514.883,498.977,512.191,494.302,509.309,489.296z"/>
	<path fill-rule="evenodd" clip-rule="evenodd" d="M496.452,488.467c3.285-1.903,6.57-3.805,10.031-5.81
		c0.349,1.605,0.153,3.029,0.177,4.634c-3.431,0.503-6.789,0.996-10.147,1.488C496.492,488.675,496.472,488.57,496.452,488.467z"/>
	<path fill-rule="evenodd" clip-rule="evenodd" d="M496.027,505.654c-1.264,0.732-2.466,1.43-3.617,2.098
		c-0.146-0.072-0.201-0.091-0.246-0.123c-0.041-0.029-0.1-0.073-0.101-0.111c-0.004-3.758-0.004-7.517-0.004-11.271
		C492.771,496.924,495.109,502.425,496.027,505.654z"/>
	<path fill-rule="evenodd" clip-rule="evenodd" d="M518.088,507.186c1.388,0.819,2.626,1.549,4.072,2.402
		c-3.527,2.049-6.84,3.973-10.152,5.896C513.786,512.586,515.92,509.99,518.088,507.186z"/>
	<path fill-rule="evenodd" clip-rule="evenodd" d="M508.598,487.317c0-1.643,0-3.014,0-4.69c3.497,2.023,6.788,3.93,10.079,5.835
		c-0.043,0.099-0.085,0.197-0.128,0.296C515.251,488.281,511.952,487.803,508.598,487.317z"/>
	<path fill-rule="evenodd" clip-rule="evenodd" d="M502.837,515.308c-3.217-1.867-6.434-3.735-9.862-5.726
		c1.435-0.838,2.673-1.56,4.076-2.38c2.079,2.649,4.095,5.22,6.112,7.789C503.054,515.097,502.945,515.202,502.837,515.308z"/>
	<path fill-rule="evenodd" clip-rule="evenodd" d="M522.975,496.438c0,3.724,0,7.448,0,11.425c-1.407-0.801-2.643-1.504-3.974-2.262
		c1.254-3.146,2.465-6.187,3.677-9.227C522.776,496.396,522.876,496.416,522.975,496.438z"/>
	<path fill-rule="evenodd" clip-rule="evenodd" d="M78.091,504.945c2.899-5.039,5.684-9.88,8.619-14.982
		c2.938,5.108,5.719,9.945,8.615,14.982C89.515,504.945,83.948,504.945,78.091,504.945z"/>
	<path fill-rule="evenodd" clip-rule="evenodd" d="M86.649,517.544c-2.753-3.514-5.407-6.9-8.087-10.32
		c1.228-0.402,13.852-0.507,16.084-0.171C94.2,508.205,89.383,514.543,86.649,517.544z"/>
	<path fill-rule="evenodd" clip-rule="evenodd" d="M76.52,503.747c-1.672-4.196-3.262-8.186-4.944-12.405
		c4.382-0.881,8.688-1.29,12.968-1.992C84.345,490.534,78.842,500.423,76.52,503.747z"/>
	<path fill-rule="evenodd" clip-rule="evenodd" d="M96.841,503.893c-2.846-4.953-5.534-9.629-8.388-14.596
		c4.678,0.683,8.978,1.31,13.425,1.957C100.185,495.502,98.577,499.537,96.841,503.893z"/>
	<path fill-rule="evenodd" clip-rule="evenodd" d="M85.688,487.313c-3.356,0.488-6.704,0.976-10.051,1.462
		c-0.039-0.089-0.076-0.179-0.114-0.268c3.314-1.92,6.628-3.839,10.165-5.888C85.688,484.313,85.688,485.727,85.688,487.313z"/>
	<path fill-rule="evenodd" clip-rule="evenodd" d="M71.193,507.962c0-4.158,0-7.957,0-11.757c1.603,2.987,2.787,6.135,4.061,9.383
		C73.939,506.356,72.703,507.079,71.193,507.962z"/>
	<path fill-rule="evenodd" clip-rule="evenodd" d="M97.221,507.191c1.362,0.795,2.639,1.541,4.095,2.392
		c-3.559,2.063-6.874,3.983-10.188,5.903c-0.072-0.076-0.145-0.153-0.216-0.229C92.99,512.6,95.069,509.942,97.221,507.191z"/>
	<path fill-rule="evenodd" clip-rule="evenodd" d="M87.723,487.317c0-1.621,0-2.998,0-4.696c3.494,2.022,6.786,3.927,10.078,5.831
		c-0.04,0.101-0.08,0.202-0.12,0.303C94.392,488.28,91.103,487.806,87.723,487.317z"/>
	<path fill-rule="evenodd" clip-rule="evenodd" d="M81.976,515.311c-3.218-1.869-6.435-3.736-9.859-5.725
		c1.424-0.835,2.661-1.561,4.068-2.386c2.079,2.647,4.097,5.219,6.116,7.79C82.192,515.097,82.084,515.203,81.976,515.311z"/>
	<path fill-rule="evenodd" clip-rule="evenodd" d="M102.11,496.425c0,3.719,0,7.438,0,11.433c-1.358-0.769-2.589-1.466-3.967-2.245
		c1.236-3.12,2.444-6.166,3.652-9.212C101.9,496.409,102.005,496.417,102.11,496.425z"/>
</g>
</svg>
